<svg width="20" height="20" viewBox="0 0 20 20" fill="none" xmlns="http://www.w3.org/2000/svg">
<path id="Vector" d="M13.7473 0C13.2435 0 12.7866 0.304687 12.5913 0.773438C12.396 1.24219 12.5054 1.77734 12.8608 2.13672L14.4776 3.75L7.86565 10.3672C7.37747 10.8555 7.37747 11.6484 7.86565 12.1367C8.35384 12.625 9.14665 12.625 9.63484 12.1367L16.2468 5.51953L17.8637 7.13672C18.223 7.49609 18.7581 7.60156 19.2267 7.40625C19.6954 7.21094 20 6.75781 20 6.25V1.25C20 0.558594 19.4415 0 18.7502 0H13.7473ZM3.12439 1.25C1.39816 1.25 0 2.64844 0 4.375V16.875C0 18.6016 1.39816 20 3.12439 20H15.622C17.3482 20 18.7463 18.6016 18.7463 16.875V12.5C18.7463 11.8086 18.1879 11.25 17.4966 11.25C16.8053 11.25 16.2468 11.8086 16.2468 12.5V16.875C16.2468 17.2188 15.9656 17.5 15.622 17.5H3.12439C2.78071 17.5 2.49951 17.2188 2.49951 16.875V4.375C2.49951 4.03125 2.78071 3.75 3.12439 3.75H7.49854C8.18981 3.75 8.74829 3.19141 8.74829 2.5C8.74829 1.80859 8.18981 1.25 7.49854 1.25H3.12439Z" fill="white"/>
</svg>
