<svg width="202" height="75" viewBox="0 0 202 75" fill="none" xmlns="http://www.w3.org/2000/svg">
<g id="Layer_x0020_1">
<path id="Vector" fill-rule="evenodd" clip-rule="evenodd" d="M185.391 5.69558C186.837 5.30881 188.385 5.88181 189.029 7.4289C189.559 8.67517 189.645 10.5374 189.602 11.8983C189.588 12.5429 189.788 13.2448 189.831 13.9181C189.874 14.62 189.731 15.2646 189.745 15.9236C189.774 16.425 189.817 16.9263 189.874 17.4277C189.96 18.2586 190.018 19.0464 189.989 19.8773C189.975 20.4073 189.889 22.026 190.032 22.7279C190.777 22.8712 192.324 22.9285 192.811 22.9142C193.871 22.8569 195.074 22.9285 196.134 23.0717C197.51 23.2436 199.587 23.6734 200.117 25.1632C200.332 25.7935 200.217 26.4381 199.902 27.0111C199.601 27.5698 199.171 27.9852 198.598 28.2574C197.581 28.7301 196.722 28.5582 195.69 28.6442C194.387 28.7588 193.14 29.2028 191.808 29.2888C191.35 29.3174 190.92 29.2888 190.476 29.2315H190.462C190.476 29.2888 190.49 29.3317 190.49 29.3747C190.734 30.621 190.734 31.9246 191.006 33.1565C191.078 33.4573 191.522 35.5918 191.765 35.778C191.994 35.9499 194.63 35.9212 194.988 35.9212C195.719 35.9356 196.321 36.1218 197.037 36.265C197.667 36.394 198.34 36.3796 198.985 36.4799C200.145 36.6661 201.463 37.368 201.692 38.6143C201.864 39.5454 201.363 40.3333 200.661 40.8777C199.615 41.6799 198.083 41.4793 196.865 41.7515C196.278 41.8947 195.676 41.9377 195.06 41.9807C194.272 42.0093 193.398 41.995 192.61 42.1383C192.711 42.5394 193.026 43.2556 193.097 43.4991C193.327 44.244 193.427 44.8457 193.542 45.6049C193.627 46.1779 193.943 46.7079 194.043 47.3096C194.129 47.8109 194.401 48.4412 194.559 48.9426C194.688 49.358 194.759 49.7735 194.816 50.1889C194.831 50.4181 194.859 50.6903 194.931 50.9051C194.988 51.1057 195.06 51.2919 195.146 51.4924C195.318 51.8935 195.461 52.2803 195.561 52.7244V52.7387L196.292 56.277L197.624 59.2279C198.111 60.0015 198.125 60.2736 198.355 61.1475C198.856 63.1959 200.059 65.4449 201.019 67.3215C201.363 67.9661 201.821 68.3816 201.965 69.1551C202.237 70.5733 200.89 71.8052 199.501 71.4901C197.925 71.132 196.134 68.6824 195.26 67.4218C194.702 66.6196 194.157 65.7887 193.67 64.9436C193.327 64.3419 192.94 63.6543 192.696 62.9954C192.453 62.3508 192.037 61.6345 191.694 61.0329C191.264 60.2593 190.605 59.1706 190.361 58.3254C190.204 57.7668 190.075 57.1795 189.889 56.6351C189.445 55.3745 188.829 54.3288 188.614 52.9822C188.428 51.7646 187.998 50.59 187.726 49.401C187.439 48.1547 187.024 46.8798 186.909 45.6049C186.852 45.0319 186.723 44.9746 186.508 44.4159C186.25 43.757 186.279 43.2986 186.193 42.6396C186.193 42.611 186.193 42.5823 186.193 42.5537C185.806 42.5537 185.118 42.8688 184.918 43.055C184.717 43.2413 184.545 43.4132 184.517 43.6853C184.488 43.9145 184.517 44.2154 184.545 44.4446C184.588 44.903 184.631 45.347 184.603 45.8054C184.56 46.5217 184.517 47.2236 184.545 47.9399C184.56 48.6848 184.388 49.3294 184.374 50.0313C184.374 50.3465 184.431 50.6616 184.459 50.9767C184.502 51.3635 184.517 51.7503 184.474 52.1371C184.402 52.753 184.273 53.0968 184.359 53.6985C184.431 54.1712 184.488 54.6296 184.417 55.1023C184.374 55.4318 184.288 55.7756 184.23 56.1051C184.144 56.5778 184.331 57.4373 184.345 57.9673C184.374 58.5546 184.331 59.1706 184.288 59.7579C184.23 60.5888 184.173 61.4196 184.087 62.2505C184.015 63.067 183.929 63.8979 183.815 64.7287C183.743 65.316 183.657 65.9463 183.528 66.5193C183.256 67.6367 182.483 68.7397 181.208 68.6824C180.076 68.6394 179.317 67.6653 179.088 66.6339C178.815 65.359 178.687 64.0554 178.386 62.7948C178.257 62.2218 178.071 61.6059 177.985 61.0329C177.899 60.4169 177.927 59.715 177.942 59.0847C177.942 58.8698 177.87 58.5976 177.827 58.3827C177.741 57.9816 177.655 57.5949 177.626 57.1795C177.584 56.4346 177.526 55.704 177.512 54.9734C177.512 54.2285 177.684 53.5123 177.669 52.8103C177.669 52.6241 177.655 52.4522 177.612 52.2946C177.211 52.3233 176.81 52.3806 176.409 52.3806C175.449 52.3806 174.504 52.3663 173.544 52.3519C172.928 52.3519 172.312 52.3519 171.696 52.3519C171.467 52.3519 171.209 52.3519 170.965 52.3519C170.822 52.8676 170.894 54.0566 170.937 54.4434C170.98 55.0164 171.051 55.6037 171.123 56.1767C171.18 56.6208 171.266 57.1365 171.252 57.5806C171.238 58.7552 171.424 59.8869 171.295 61.0902C171.238 61.5629 171.152 61.921 170.922 62.3364C170.851 62.4654 170.836 62.5083 170.822 62.6659C170.765 63.1386 170.779 63.6543 170.751 64.1414C170.722 64.5711 170.665 65.0152 170.607 65.4306C170.536 66.1325 170.45 66.8201 170.349 67.5221C170.249 68.267 170.149 69.0262 170.034 69.7711C169.963 70.2151 169.862 70.9887 169.619 71.3611L169.404 71.7193L169.003 71.8482C168.201 72.1204 167.341 72.1204 166.639 71.576C165.608 70.7881 165.594 69.4416 165.393 68.2813C165.278 67.5077 165.035 66.8058 164.978 66.0036C164.92 65.2301 164.963 64.4565 164.92 63.683C164.82 62.2648 164.548 60.9326 164.562 59.5001C164.562 57.9243 164.491 56.3629 164.519 54.8015C164.519 54.4004 164.72 52.839 164.605 52.5668C164.519 52.5095 164.29 52.4809 164.204 52.4665C162.857 52.3233 161.368 52.2803 160.007 52.3663C158.818 52.4379 157.443 52.3663 156.268 52.223C154.764 52.0225 152.515 51.5497 151.899 49.9454C151.627 49.2291 151.77 48.4699 152.128 47.8109C153.117 46.006 155.853 46.493 157.543 46.493C159.176 46.493 160.78 46.4214 162.399 46.3641C162.743 46.3498 163.072 46.3641 163.416 46.3784C163.66 46.3928 164.448 46.4214 164.662 46.2925C164.72 46.2495 164.748 46.049 164.763 46.006C164.849 45.4473 164.92 43.5564 164.648 42.9691C164.419 42.8688 164.175 42.8259 163.903 42.8259C163.531 42.8402 163.13 42.9118 162.757 42.9691C162.184 43.0407 161.64 43.098 161.067 43.0407C159.319 42.8688 157.958 41.7945 156.827 40.5052C155.093 38.5427 154.921 34.4458 155.351 31.9532C155.466 31.2943 155.451 30.4348 155.437 29.7615C155.423 29.0309 155.38 28.286 155.337 27.5411C155.251 26.1803 155.366 24.8194 155.294 23.4728C155.222 21.9974 155.523 20.5362 156.64 19.5048C157.529 18.674 158.703 18.3159 159.892 18.1869C159.849 18.1153 159.806 18.0294 159.763 17.9434C159.248 16.912 158.417 16.4106 157.786 15.4795C157.156 14.5627 156.268 13.4884 155.867 12.4713C155.509 11.5402 154.678 9.60629 154.778 8.66085C154.864 7.70108 155.652 6.88455 156.583 6.35453C156.44 6.29723 156.297 6.22561 156.168 6.15398C155.523 5.85316 155.194 5.50936 155.065 4.77879C155.05 4.70716 155.036 4.63554 155.022 4.56391C154.907 4.07686 154.95 3.64712 155.036 3.17439C155.079 2.68734 155.05 2.11435 155.05 1.61297C155.036 0.123178 156.726 -0.50712 157.643 0.466977C157.844 0.338052 158.087 0.252103 158.345 0.252103C158.875 0.252103 159.219 0.438327 159.534 0.825101C159.548 0.839426 159.577 0.85375 159.606 0.8824C159.878 1.1116 160.078 1.41242 160.15 1.7419C160.365 1.6846 160.565 1.6846 160.766 1.72757C161.339 0.96835 162.643 0.982675 163.201 1.82785C163.201 1.7419 163.201 1.64162 163.201 1.54135C163.23 0.252103 164.734 -0.47847 165.708 0.366702C165.737 0.409677 165.78 0.438327 165.808 0.481302C166.038 0.338052 166.281 0.252103 166.553 0.252103C167.169 0.252103 167.585 0.481302 167.871 0.982675C167.9 1.01132 167.914 1.02565 167.943 1.0543C168.143 1.25485 168.272 1.49837 168.33 1.75622C168.401 1.72757 168.487 1.71325 168.559 1.71325C168.716 1.6846 168.874 1.69892 169.032 1.7419C169.576 1.01132 170.879 0.954025 171.409 1.84217C171.495 1.87082 171.567 1.9138 171.639 1.9711C171.639 1.95677 171.653 1.95677 171.653 1.94245C171.839 1.75622 172.025 1.64162 172.269 1.55567C172.341 1.5127 172.427 1.46972 172.498 1.44107C172.684 1.35512 172.842 1.29782 173.028 1.25485C173.257 1.08295 173.501 0.982675 173.816 0.954025C174.045 0.896725 174.203 0.868075 174.446 0.868075H175.377C175.85 0.868075 176.395 1.03997 176.753 1.36945C176.796 1.41242 176.824 1.44107 176.853 1.48405C176.896 1.49837 176.925 1.52702 176.953 1.55567C177.068 1.46972 177.211 1.38377 177.354 1.3408C177.498 1.29782 177.626 1.26917 177.755 1.26917C177.798 1.15457 177.87 1.03997 177.956 0.925375C178.285 0.495627 178.801 0.266428 179.331 0.381027C179.575 0.438327 179.79 0.552927 179.961 0.724826C180.549 0.409677 181.365 0.538602 181.824 1.25485C181.852 1.29782 181.895 1.35512 181.924 1.41242C181.996 1.29782 182.11 1.18322 182.239 1.06862C182.941 0.495627 183.987 0.753476 184.388 1.55567C184.603 1.98542 184.545 2.40085 184.545 2.84492C184.56 2.84492 184.56 2.84492 184.574 2.84492C184.918 2.84492 185.262 2.97384 185.505 3.23169C185.892 3.60414 185.906 3.97659 185.906 4.46364C185.906 4.83609 185.777 5.15124 185.548 5.40908C185.505 5.50936 185.448 5.60963 185.391 5.69558ZM183.901 6.48346C183.485 6.46913 183.07 6.31156 182.769 6.01073C182.612 5.85316 182.483 5.69558 182.368 5.49503C182.354 5.49503 182.354 5.48071 182.354 5.46638C182.311 5.42341 182.268 5.36611 182.225 5.30881C182.082 5.12259 181.967 4.87906 181.91 4.62121C181.666 4.72149 181.423 4.75014 181.15 4.70716C181.136 4.72149 181.136 4.75014 181.122 4.76446C181.05 4.96501 180.964 5.07961 180.85 5.25151C180.721 5.49503 180.534 5.75288 180.305 5.92478C179.833 6.26858 179.073 6.35453 178.529 6.13966C178.515 6.12533 178.5 6.12533 178.486 6.12533C178.242 6.32588 177.97 6.41183 177.641 6.41183C176.982 6.41183 176.566 5.99641 176.409 5.46638C176.208 5.66693 175.979 5.78153 175.721 5.85316C175.836 5.89613 175.95 5.96776 176.051 6.03938C176.681 6.45481 177.011 7.1424 177.211 7.85865C177.326 8.2311 177.397 8.66085 177.512 9.0333C177.555 9.16222 177.612 9.27682 177.684 9.39142C177.913 9.83549 178.071 10.2079 178.185 10.695C178.328 11.268 178.715 11.7837 178.83 12.3567C178.901 12.7291 178.887 13.1016 178.901 13.474C178.916 13.5457 178.916 13.7032 178.944 13.7749C179.303 14.6344 179.489 15.6514 179.403 16.5825C179.331 17.4277 179.002 18.3302 178.257 18.7743C178.371 18.8459 178.5 18.9175 178.629 19.0178C180.277 20.1351 180.534 21.4674 180.449 23.2723C180.964 23.0431 181.594 22.9428 182.325 22.9858C182.497 23.0001 182.941 23.0288 183.242 23.0144C183.242 22.7279 183.213 22.3412 183.199 22.1693C183.013 19.6338 183.514 16.8117 182.97 14.3335C182.683 13.0586 182.783 11.841 182.597 10.5804C182.354 8.84707 182.569 7.5435 183.901 6.48346ZM175.578 18.0867C175.521 18.0294 175.463 17.9721 175.42 17.9148C174.747 17.1269 174.289 16.2531 173.515 15.5368C172.914 14.9925 172.412 14.4625 172.111 13.6889C171.939 13.2305 171.854 12.9297 171.596 12.4999C170.793 11.1964 170.077 9.50602 170.736 8.0019C171.223 6.88455 172.269 6.28291 173.372 5.95343C173.272 5.86748 173.171 5.78153 173.071 5.68126C172.971 5.59531 172.899 5.50936 172.813 5.40908C172.613 5.13691 172.512 4.80744 172.541 4.49229C172.484 4.72149 172.398 4.92204 172.24 5.12259C172.025 5.38043 171.839 5.60963 171.524 5.76721C171.467 5.79586 171.395 5.81018 171.338 5.83883C171.209 5.91046 171.08 5.96776 170.951 6.02506C170.951 6.02506 170.937 6.03938 170.937 6.05371C170.751 6.22561 170.593 6.31156 170.378 6.41183C170.077 6.59805 169.819 6.684 169.447 6.684C169.332 6.684 169.218 6.684 169.103 6.66968C168.946 6.64103 168.802 6.59805 168.673 6.52643C169.261 7.0851 169.676 7.87298 169.748 8.71815C169.776 9.13357 169.92 9.63494 170.02 10.0504C170.178 10.7236 170.364 11.3969 170.507 12.0845C170.665 12.7578 170.808 13.4454 170.879 14.1473C170.908 14.3192 171.037 14.6487 171.094 14.8349C171.195 15.1214 171.295 15.4079 171.352 15.7087C171.51 16.4536 171.381 17.3274 170.994 18.0007C172.083 18.058 173.157 18.1726 174.246 18.144C174.747 18.1153 175.177 18.0867 175.578 18.0867ZM167.184 18.0007C166.697 17.4277 166.238 16.7831 165.823 16.1814C165.379 15.5511 164.949 14.9065 164.519 14.2762C164.261 13.8895 164.061 13.5313 163.96 13.0873C163.918 12.8724 163.889 12.7005 163.817 12.4999C163.674 12.0559 163.373 11.5831 163.158 11.1677C162.8 10.4371 162.571 9.70657 162.6 8.89005C162.614 8.36002 162.786 7.85865 163.101 7.4289C163.531 6.8559 164.075 6.55508 164.677 6.31156C164.648 6.29723 164.605 6.28291 164.576 6.26858C164.304 6.15398 164.147 6.06803 163.932 5.88181C163.889 5.85316 163.846 5.81018 163.803 5.78153C163.731 5.70991 163.66 5.65261 163.602 5.58098C163.516 5.65261 163.402 5.70991 163.273 5.78153C163.216 5.81018 163.158 5.82451 163.087 5.85316C162.915 5.96776 162.757 6.06803 162.571 6.11101C162.284 6.35453 162.07 6.55508 161.669 6.64103C161.425 6.684 161.181 6.69833 160.938 6.65535C161.439 7.1997 161.812 7.90163 161.998 8.5749C162.141 9.0906 162.327 9.60629 162.499 10.1077C162.729 10.738 163.015 11.4829 163.13 12.1418C163.373 13.3881 163.588 14.6344 163.832 15.8806C163.96 16.5969 163.946 17.3561 163.645 18.0294C163.645 18.0437 163.645 18.0437 163.645 18.0437C164.376 18.0007 165.106 17.9577 165.851 17.9864C166.295 17.9864 166.74 18.0007 167.184 18.0007ZM168.201 6.16831C168.115 6.06803 168.043 5.93911 167.986 5.79586C167.986 5.79586 167.986 5.78153 167.986 5.76721C167.9 5.69558 167.828 5.62396 167.757 5.52368C167.714 5.56666 167.685 5.59531 167.628 5.62396C167.599 5.66693 167.556 5.68126 167.513 5.70991C167.484 5.75288 167.441 5.78153 167.413 5.81018C167.685 5.89613 167.943 6.01073 168.201 6.16831ZM159.634 5.78153C159.591 5.72423 159.548 5.68126 159.505 5.62396C159.505 5.60963 159.491 5.60963 159.491 5.59531C159.462 5.62396 159.434 5.63828 159.391 5.65261L159.348 5.69558C159.448 5.72423 159.548 5.73856 159.634 5.78153ZM180.549 28.6155C180.549 29.2028 180.506 29.8045 180.477 30.3918C180.434 31.0507 180.391 31.7383 180.434 32.3973C180.506 33.1708 180.563 33.9444 180.549 34.7179C180.534 35.4628 180.477 36.222 180.42 36.9813C180.406 37.1532 180.391 37.3251 180.377 37.4826C180.721 37.1961 181.093 36.8953 181.351 36.7664C181.967 36.4512 182.569 36.1504 183.242 35.9642C183.815 35.8066 184.431 35.7064 185.018 35.5774C185.004 35.4199 184.947 35.205 184.918 35.119C184.803 34.7036 184.674 34.2882 184.646 33.8584C184.617 33.2568 184.316 32.6551 184.259 32.0248C184.245 31.8959 184.23 31.8816 184.187 31.767C184.116 31.5808 184.073 31.3945 184.058 31.2083C184.03 30.8645 184.087 30.7213 184.144 30.4204C184.144 30.4061 184.144 30.3918 184.144 30.3918C184.087 30.0193 184.044 29.6612 183.987 29.3031C183.987 29.3031 183.987 29.3031 183.987 29.2888C183.972 29.2888 183.958 29.2888 183.929 29.2888C183.543 29.3031 183.142 29.3031 182.74 29.2888C181.938 29.2458 181.165 29.0166 180.549 28.6155ZM177.884 41.7801C176.681 42.6253 175.349 42.9977 173.802 43.0121C173.243 43.0121 172.684 42.9691 172.126 42.9548C172.011 42.9548 171.639 42.9548 171.51 42.9977C171.495 43.0264 171.481 43.0694 171.481 43.0837C171.281 43.714 171.395 45.1465 171.524 46.1922C171.596 46.1922 171.682 46.1922 171.739 46.2065C172.283 46.2352 172.828 46.2638 173.372 46.2638C174.031 46.2782 174.676 46.2925 175.335 46.3068C175.75 46.3068 176.366 46.3068 176.753 46.4214C176.982 46.4787 177.297 46.4787 177.555 46.4214C177.626 46.1206 177.641 45.6335 177.641 45.433C177.669 44.6738 177.669 43.9289 177.727 43.1697C177.755 42.7113 177.798 42.2385 177.884 41.7801ZM17.4162 43.098C18.4906 39.9465 21.6421 37.368 24.1633 35.4915C24.4355 35.2909 24.5787 35.1907 24.5787 34.8612C24.5787 34.6033 24.6074 33.9874 24.5644 33.5863C24.4928 33.5863 24.4068 33.5863 24.3638 33.6006C23.9054 33.6006 23.4614 33.6292 23.0316 33.486C22.3011 33.2568 21.7567 32.827 21.1694 32.3686C19.7655 31.2656 19.2212 30.6926 18.7198 28.902C18.4906 28.0712 18.2614 27.3549 18.4333 26.4811C18.4333 26.4381 18.4333 26.3951 18.4333 26.3665C18.4333 26.1659 18.3903 25.9224 18.3474 25.7362C18.2901 25.3351 18.2471 24.9483 18.2614 24.5329C18.2901 23.7737 18.1038 23.1004 18.2184 22.2839C18.3044 21.6393 18.4476 20.8944 18.4476 20.2354C18.4476 19.5335 18.4333 18.8745 18.462 18.1726C18.4763 17.9004 18.4476 17.7285 18.4047 17.4707C18.3187 16.9693 18.3474 16.5396 18.4476 16.0382C18.5049 15.7374 18.4763 15.279 18.4763 14.9925C18.462 14.5914 18.4476 14.1903 18.4476 13.7892C18.4476 13.0873 18.2184 12.2994 18.2757 11.6118C18.3187 10.9528 18.4333 10.2509 18.5479 9.59197C18.6482 8.94735 18.7914 8.03055 19.0206 7.4289C19.0923 7.257 19.1782 7.0851 19.2928 6.92753C19.8515 6.13966 20.8399 5.72423 21.7854 5.83883C22.9457 5.96776 23.7479 6.81293 24.0057 7.91595C24.1633 8.60355 24.1346 9.19087 24.3638 9.87847C24.5787 10.5661 24.7793 11.268 24.9941 11.9556C25.0228 12.0702 25.0658 12.2564 25.1231 12.414C25.1947 12.414 25.2663 12.414 25.3236 12.3997C25.7677 12.3853 26.2118 12.3853 26.6702 12.414C27.3721 12.457 28.0597 12.5429 28.7616 12.6432C29.1914 12.7005 30.0365 12.4856 30.5236 12.4426C31.1109 12.3997 31.6123 12.4713 32.1996 12.5429C32.4288 12.5859 32.658 12.6145 32.8872 12.6145C33.5605 12.6002 34.2051 12.5572 34.8784 12.5859C35.5516 12.6289 36.1963 12.7148 36.8695 12.7005C36.8982 12.5143 36.9412 12.3424 37.0271 12.0988C37.2993 11.3826 37.199 10.6234 37.5285 9.90712C37.9439 9.00465 38.7747 8.58922 39.6915 8.36002C40.7373 8.07353 41.9262 8.71815 42.5422 9.56332C43.0293 10.2223 43.2298 11.4399 43.2155 12.2707C43.2155 12.8151 43.1439 14.6773 43.3731 15.2073C43.545 15.6084 43.6166 15.9666 43.6596 16.4106C43.7312 17.1842 43.7312 18.0294 43.7455 18.8029C43.7598 19.5908 43.7742 20.4789 43.7025 21.2525C43.6596 21.7825 43.6739 22.3555 43.6882 22.8855C43.7025 23.5874 43.7312 24.3037 43.7312 25.0056C43.7598 26.653 43.7025 28.902 42.6282 30.2342C41.6541 31.4518 41.3532 32.2111 39.8348 32.9989C38.5885 33.6579 37.4282 33.6149 36.1963 33.6149C36.1819 33.8155 36.1819 34.016 36.1963 34.2022C36.2392 34.4887 36.5114 34.7179 36.7263 34.8898C37.4855 35.4915 38.6029 36.1647 39.491 36.5802C40.107 36.8667 40.7373 37.6116 41.1957 38.1129C41.4822 38.4138 41.8546 38.8722 42.1841 39.13C43.2585 39.9609 43.9031 41.0782 44.5764 42.2242C45.4072 43.6137 45.9229 49.2434 45.9229 51.0054C45.9086 51.7933 45.9802 52.4952 45.9229 53.2831C45.8656 53.9563 45.8226 54.6583 45.8942 55.3315C45.9372 55.7183 46.0375 56.0621 46.1234 56.4489C46.1951 56.7927 46.2524 57.1365 46.281 57.5089C46.324 58.2968 46.238 59.0703 46.238 59.8582C46.238 61.2764 46.5389 62.6373 46.5389 64.0697C46.5389 64.8576 46.3526 65.5739 46.238 66.3474C46.1951 66.6196 46.2237 66.9634 46.238 67.2499C46.2667 67.7656 46.2667 68.2956 46.1378 68.8113C46.0089 69.3127 45.8513 69.8284 45.6507 70.3011C45.2926 71.1606 44.7196 72.106 43.7025 72.2206C43.1152 72.2923 42.5709 72.0487 42.1698 71.619C41.9835 71.4184 41.697 70.8741 41.5395 70.6306C41.3819 70.3584 41.167 70.0433 41.0381 69.7568C40.6083 68.8973 40.594 68.2956 40.5081 67.3788C40.4937 67.2785 40.4508 67.1639 40.4221 67.0493C40.3648 66.8058 40.3075 66.5766 40.2789 66.3188C40.2502 65.932 40.2932 65.5309 40.2789 65.1298C40.2502 64.6857 40.1643 64.2416 39.978 63.8262C39.3907 62.5513 39.5196 60.861 39.3191 59.5001C39.2045 58.7695 39.1615 57.7811 39.2618 57.0505C39.3048 56.764 39.3048 56.5778 39.2618 56.3056C39.1902 55.9189 39.1472 55.5894 39.1615 55.1883C39.1615 54.4434 39.1472 53.6698 39.1042 52.9249C39.0756 52.1944 39.0612 51.3778 38.961 50.6616C38.7174 48.9999 38.6601 47.7536 38.8034 46.0776C38.8034 45.7911 38.6458 44.9603 38.5456 44.6738C38.4596 44.5448 38.3593 44.4302 38.2591 44.3156C37.9582 43.9718 37.729 43.671 37.5285 43.2699C37.1131 42.4677 36.5974 41.7372 35.7379 41.3934C35.0073 41.1069 34.1908 41.0782 33.4172 40.7631C32.7583 40.4909 32.2282 40.0755 31.8128 39.4881C31.555 39.13 31.3544 38.7862 31.1825 38.4138C30.6525 39.7746 30.1368 40.276 28.5324 41.0209C27.2288 41.6226 24.722 43.7856 24.2492 45.1751C24.1203 45.5476 23.9771 45.7911 23.8195 46.1349V46.1492C23.7765 46.2638 23.7908 46.5933 23.7908 46.7079C23.8052 47.5674 23.576 48.2407 23.3611 49.0572C23.1892 49.6589 23.2179 50.3608 23.1462 50.9911C23.1176 51.2203 23.0603 51.4065 22.9887 51.6357C22.9743 51.693 22.96 51.7216 22.9743 51.7789C22.9887 52.2087 23.046 52.5811 23.003 53.0252C22.9457 53.6555 22.8168 54.2572 22.6592 54.8731C22.5016 55.5034 22.3154 56.191 22.3154 56.8357C22.3154 57.2511 22.2438 57.6235 22.1435 58.0246C22.0575 58.3541 21.9573 58.6692 21.9429 59.013C21.9 59.715 21.8856 60.4312 21.8427 61.1331C21.7997 62.007 21.6851 62.6946 21.4416 63.5254C21.4129 63.64 21.3556 63.8262 21.3413 63.9695C21.4129 64.3276 21.4416 64.5711 21.4416 64.9579C21.4129 65.7458 21.327 66.5336 21.0834 67.2785C20.9402 67.694 20.754 68.0234 20.5821 68.4245C20.5104 68.5821 20.4818 68.711 20.4675 68.8973C20.3958 70.1722 20.0091 71.9341 18.4476 72.0917C17.1011 72.235 16.0697 70.9027 15.7259 69.7424C15.5683 69.1981 15.5397 68.6251 15.6543 68.0664C15.6973 67.9232 15.7832 67.5794 15.7689 67.4218C15.6686 66.992 15.6113 66.7199 15.597 66.2758C15.5827 65.5452 15.8692 65.0295 15.8119 64.299C15.7546 63.5827 15.9121 62.9381 15.9408 62.2218C16.0124 60.7177 16.127 59.1993 16.1413 57.6808C16.1413 57.1795 16.0697 56.7067 16.1843 56.2054C16.2416 55.9762 16.3132 55.8186 16.3992 55.6037C16.4135 55.5751 16.4135 55.5464 16.4135 55.5178C16.4135 54.6869 16.3562 53.8704 16.3992 53.0395C16.4278 52.5238 16.5424 52.0941 16.6427 51.5927C16.6857 51.3778 16.7286 51.163 16.7286 50.9481C16.7143 50.7762 16.7143 50.59 16.7143 50.4181C15.9121 51.8362 14.5799 52.882 12.9755 53.4406C11.7579 53.8561 7.36013 54.028 6.07089 53.7701C3.64997 53.2974 1.90233 52.1227 1.11445 49.7018C0.89958 49.0715 0.827955 48.4699 0.799306 47.8109C0.784981 47.3525 0.784981 46.9085 0.727681 46.4644C0.656056 45.8627 0.699031 45.3184 0.784981 44.7311C0.827955 44.33 0.89958 43.9575 0.885255 43.5564C0.87093 42.9261 0.913905 42.2958 0.971205 41.6655C1.0858 40.3763 1.34365 38.7432 1.10013 37.4826C0.856605 36.222 0.87093 35.1907 0.813631 33.9301C0.756331 32.8127 0.541457 31.7527 0.555781 30.6353C0.570106 28.4006 0.570106 26.2089 0.383882 23.9742C0.326582 23.3009 0.254958 22.6563 0.240633 21.9831C0.211983 20.8227 0.355232 19.5335 1.18608 18.674C1.78773 18.058 2.5756 17.8002 3.40645 17.8145C6.42901 17.8861 7.58933 20.4073 7.58933 23.0861C7.57501 24.2607 7.64663 25.4497 7.57501 26.6243C7.56068 26.8106 7.51771 27.2833 7.53203 27.5984C8.24828 27.6557 10.1248 27.4982 10.5976 27.4695C10.5832 27.183 10.5259 26.7103 10.5259 26.5384C10.44 25.1489 10.8697 23.7164 12.1733 23.0288C13.5199 22.3125 15.0956 22.7709 16.2416 23.6304C17.1297 24.3037 17.7314 25.1345 17.9319 26.2376C18.1755 27.5984 17.7171 28.8447 17.6454 30.1626C17.5595 31.9246 17.1584 33.6006 16.9722 35.3339C16.9435 35.7207 16.9149 36.0931 16.9149 36.4799C16.9005 36.9383 17.1011 37.2821 17.273 37.6832C17.5165 38.2419 17.6598 38.7719 17.6598 39.3879C17.6454 40.4193 17.3016 41.4507 17.3876 42.4534C17.4019 42.6683 17.4019 42.8832 17.4162 43.098ZM130.311 53.7844C130.698 53.8847 131.07 53.9993 131.457 54.1282C133.506 54.8302 135.597 55.3745 137.631 56.1194C139.794 56.9359 141.671 57.9387 143.504 59.3712C145.238 60.732 146.527 62.5943 147.444 64.5854C147.759 65.2587 147.931 65.932 148.103 66.6626C148.189 67.035 148.275 67.4075 148.404 67.7656C148.733 68.6394 149.306 69.7424 148.962 70.6735C148.733 71.2895 148.217 71.6476 147.659 71.9198L147.143 72.1633L146.627 71.9198C145.582 71.4184 144.894 70.2581 144.292 69.3127C144.02 68.8829 143.719 68.3959 143.376 68.0234C142.674 67.2785 141.929 66.5193 141.112 65.9033C140.654 65.5595 140.21 65.3017 139.708 65.0295C139.107 64.6857 138.577 64.3562 138.047 63.9122C137.459 63.4251 135.812 62.8235 135.081 62.5513C134.036 62.1789 132.832 61.7491 131.758 61.5056C130.068 61.1188 128.435 60.4599 126.716 60.1734C125.054 59.9012 123.306 59.5717 121.616 59.4858C120.756 59.4428 119.883 59.5144 119.023 59.4858C117.891 59.4285 116.917 59.1706 115.9 58.6549C113.795 57.5806 113.264 56.2483 112.677 54.0853C112.376 52.9966 112.29 51.9795 112.333 50.8478C112.376 49.8881 112.491 48.9426 112.491 47.9828C112.477 47.3096 112.548 46.1636 112.333 45.5189C112.147 45.0032 111.689 44.6451 111.245 44.3586C110.801 44.0578 109.741 44.1151 109.225 44.1008C109.125 44.1008 108.924 44.1008 108.795 44.1294C108.723 44.3443 108.681 44.8886 108.666 45.0605C108.58 45.8771 108.466 46.6363 108.193 47.4242C107.893 48.255 107.936 49.0859 107.821 49.9597C107.692 50.8765 107.477 51.7933 107.363 52.7244C107.32 53.1255 107.305 53.5696 107.305 53.985C107.291 54.5723 107.277 55.174 107.262 55.7613C107.234 56.7497 107.219 57.867 107.019 58.8268C106.847 59.6863 106.618 60.5458 106.546 61.4053C106.489 62.1216 106.346 62.8808 106.202 63.5827C106.016 64.6284 105.787 65.6598 105.543 66.6769C105.243 67.9948 104.469 71.2895 103.595 72.2779L103.094 72.8509L102.363 72.6361C100.53 72.0917 100.257 69.6278 100.157 68.0234C100.114 67.4075 100.1 66.8058 100.071 66.1898C100.057 65.8031 100.057 65.359 99.9853 64.9865C99.8707 64.299 100.114 63.5397 100.086 62.8521C100.071 62.7232 100.014 62.537 99.9996 62.3937C99.9566 62.1789 99.9566 61.9783 99.9996 61.7634C100.129 60.8466 100.043 60.0158 100.014 59.099C99.9996 58.3971 100.028 57.7381 100.186 57.0505C100.429 55.9332 100.315 54.472 100.329 53.3117C100.358 51.8219 100.902 49.358 101.403 47.9112C101.489 47.3525 101.489 46.7509 101.561 46.1779C101.661 45.433 101.919 45.0032 102.163 44.33C102.22 44.1867 102.249 44.0578 102.249 43.9289C101.418 43.6997 100.587 43.5278 99.7704 43.227C99.4839 43.1267 99.226 42.9977 98.9682 42.8402C98.2949 42.4104 97.6933 41.7372 97.6789 40.892C97.6646 40.0468 98.209 39.4308 98.9252 39.0727C99.7704 38.6286 100.644 38.4567 101.575 38.3278C102.091 38.2419 102.822 38.1559 103.28 37.9124C103.953 37.5399 104.097 36.5945 104.168 35.8926C104.225 35.2336 104.483 34.3025 104.899 33.7725C105.486 33.0276 105.83 32.2254 106.231 31.3802C106.919 29.9047 109.225 27.2546 110.672 26.5241C112.505 25.5786 113.193 24.6475 113.35 22.5704C113.422 21.5533 113.465 20.5076 113.293 19.4905C113.121 18.4448 113.379 17.3561 113.179 16.339C113.164 16.2387 113.121 16.0239 113.064 15.8663C112.964 15.8663 112.849 15.8663 112.777 15.8663C112.391 15.8663 112.033 15.8806 111.646 15.852C111.273 15.8376 110.901 15.8233 110.528 15.8376C110.285 15.852 110.041 15.8663 109.798 15.852C109.125 15.8376 108.437 15.6228 107.792 15.4222C107.749 15.3936 107.692 15.3936 107.649 15.3936C107.449 15.3649 107.234 15.3792 107.033 15.3792C106.661 15.3649 106.317 15.3219 105.959 15.2217C105.5 15.0928 104.97 14.9209 104.512 14.8636C103.251 14.706 101.446 13.474 101.146 12.1991L100.988 11.5402L101.489 11.0674C102.822 9.80684 103.423 9.77819 105.128 9.50602C106.374 9.30547 107.62 9.00465 108.895 9.0906C110.156 9.17655 111.202 8.93302 112.434 8.8041C113.623 8.67517 114.683 8.7468 115.829 9.1479C117.275 9.63494 118.02 10.1793 118.794 11.5258C119.41 12.5859 120.097 13.7176 120.198 14.9638C120.298 16.2387 120.241 17.4993 120.398 18.7743C120.456 19.1754 120.47 19.5621 120.484 19.9346C120.513 18.4878 120.513 17.0409 120.456 15.5941C120.398 14.0757 120.427 12.5572 120.37 11.0388C120.312 9.44872 120.026 6.81293 121.759 5.98208C122.891 5.43773 124.166 5.99641 125.04 6.75563C125.598 7.22835 126.128 7.90163 126.357 8.60355C126.558 9.2625 126.687 9.99307 126.83 10.6663C126.902 11.0388 127.102 12.0702 127.289 12.3997C127.632 12.7721 130.111 12.4856 130.583 12.4713C132.231 12.4426 133.878 12.4856 135.54 12.4856C136.285 12.4856 137.001 12.5429 137.732 12.5859C138.548 12.6432 139.279 12.6432 140.081 12.5572C140.797 12.4713 141.556 12.5429 142.258 12.5716C142.631 12.5859 143.791 12.6289 144.092 12.414C144.206 12.3137 144.292 12.1991 144.378 12.0702C144.479 11.884 144.55 11.6691 144.607 11.4685C144.88 10.5804 144.994 9.70657 145.668 8.99032C146.097 8.5176 146.685 8.21677 147.329 8.25975C148.776 8.36002 149.807 10.122 150.151 11.3683C150.595 12.9583 150.567 15.0641 150.509 16.6971C150.452 18.2156 150.337 19.734 150.252 21.2525C150.166 22.7279 150.252 24.1748 150.28 25.6502C150.294 26.2089 150.28 26.7676 150.252 27.3119C150.194 28.3004 150.08 29.3461 150.166 30.3345C150.28 31.681 150.252 33.0706 150.194 34.4171C150.151 35.4342 150.094 36.4369 150.051 37.454C150.022 38.2275 149.994 39.0297 150.065 39.8033C150.18 41.3361 150.209 42.9405 150.209 44.4875C150.223 45.433 150.209 46.3928 150.151 47.3382C150.108 48.0401 150.051 48.871 149.865 49.5443C149.535 50.8048 147.902 52.3949 146.799 53.0682C145.252 54.028 143.648 53.7844 141.929 53.7988C140.21 53.7988 138.491 53.7558 136.786 53.8274C135.139 53.8847 133.506 53.7415 131.873 53.7844C131.357 53.7988 130.827 53.7988 130.311 53.7844ZM123.378 52.6671C123.134 52.4809 122.891 52.2803 122.619 52.0368C121.516 51.0484 120.713 49.2578 120.513 47.7966C120.155 45.2038 120.298 42.7256 120.513 40.1328C120.67 38.0556 120.871 35.9785 120.771 33.8728C120.699 32.3113 120.456 30.7786 120.441 29.2171C120.427 27.7703 120.355 26.3235 120.37 24.8767C120.384 23.5301 120.427 22.1836 120.456 20.8227C120.427 21.4817 120.341 22.1406 120.269 22.8425C119.969 25.6216 119.353 27.183 117.949 29.5896C117.132 30.9934 116.359 31.1367 115.069 31.81C114.181 32.2827 112.033 34.675 111.66 35.6061C111.46 36.0931 111.216 36.5945 110.987 37.0672C110.901 37.2678 110.801 37.4683 110.715 37.6689C111.058 37.6259 111.431 37.5686 111.631 37.5686C112.734 37.5543 114.453 37.8264 115.399 38.3565C117.734 39.6744 119.166 41.8661 119.267 44.5448C119.367 47.0804 119.367 49.6016 119.424 52.1227C119.424 52.2087 119.439 52.4522 119.482 52.5668C119.754 52.6671 120.728 52.6241 120.986 52.6241C121.802 52.5955 122.59 52.5955 123.378 52.6671ZM196.965 5.96776C197.997 6.39751 198.827 7.41458 198.913 8.50327C198.942 8.93302 198.971 9.52034 199.071 9.93577C199.171 10.3512 199.214 10.738 199.229 11.1677C199.229 11.3969 199.229 11.6118 199.257 11.841C199.372 12.6718 199.486 13.0873 199.3 13.9611C199.214 14.4195 199.1 15.0068 199.057 15.4795C199.042 16.2101 198.942 17.0409 198.527 17.6712C198.111 18.2872 197.424 18.6024 196.679 18.4734C196.091 18.3732 195.518 17.9721 195.246 17.442C195.103 17.1699 194.845 16.869 194.688 16.6112C194.286 15.9809 194.014 15.3076 193.814 14.5914C193.728 14.2906 193.527 14.1187 193.37 13.8465C193.241 13.6173 193.169 13.3738 193.14 13.1302C193.083 12.6862 193.011 12.2564 192.883 11.841C192.854 11.798 192.811 11.755 192.782 11.7264C192.381 11.2107 192.31 10.6663 192.353 10.0217C192.353 10.0074 192.353 9.99307 192.353 9.97874C192.295 9.80684 192.252 9.66359 192.224 9.46305C192.195 9.16222 192.195 8.90437 192.295 8.64652C192.31 7.85865 192.596 7.1424 193.255 6.65535C193.527 6.44048 193.857 6.29723 194.186 6.19696C194.272 6.16831 194.401 6.13966 194.516 6.11101C194.444 6.06803 194.372 6.02506 194.315 5.96776C194.301 5.95343 194.286 5.92478 194.258 5.91046C193.756 6.44048 192.969 6.48346 192.324 6.05371C192.31 6.05371 192.295 6.03938 192.281 6.02506C192.252 6.03938 192.224 6.05371 192.195 6.06803C191.966 6.19696 191.765 6.22561 191.536 6.23993C191.078 6.42616 190.462 6.36886 189.96 6.36886C189.659 6.36886 189.459 6.29723 189.201 6.19696C188.915 6.08236 188.728 5.95343 188.528 5.73856C188.184 5.46638 188.155 5.32313 187.983 4.97934C187.883 4.77879 187.826 4.59256 187.797 4.39201C186.58 4.03389 186.178 2.34355 187.568 1.6846C187.64 1.64162 187.711 1.61297 187.769 1.59865C188.041 0.782126 188.986 0.381027 189.76 0.739151C190.046 0.438327 190.462 0.252103 190.877 0.252103C191.292 0.252103 191.679 0.409677 191.951 0.710501C192.138 0.925375 192.224 1.1116 192.267 1.31215C192.653 1.41242 192.954 1.6273 193.14 1.89947C193.169 1.8565 193.198 1.81352 193.241 1.77055C193.327 1.52702 193.441 1.3408 193.627 1.15457C193.67 1.09727 193.728 1.0543 193.785 1.01132C194.029 0.438327 194.473 0.00857845 195.175 0.00857845C195.991 0.00857845 196.65 0.724826 196.65 1.52702C196.65 1.81352 196.578 2.10002 196.421 2.35787C196.406 2.38652 196.392 2.40085 196.364 2.42949C196.521 2.3722 196.679 2.34355 196.865 2.34355C197.868 2.34355 198.512 3.26034 198.283 4.19146C198.254 4.34904 198.197 4.47796 198.125 4.62121C198.011 5.00799 197.839 5.25151 197.51 5.52368C197.452 5.58098 197.395 5.62396 197.323 5.66693C197.295 5.68126 197.28 5.69558 197.252 5.70991C197.223 5.75288 197.18 5.78153 197.151 5.82451C197.094 5.88181 197.022 5.92478 196.965 5.96776ZM84.6576 13.517C84.6576 13.9754 84.5859 14.4625 84.6146 14.9065C84.6576 16.1814 84.1848 17.4277 82.9815 18.015C82.1364 18.4305 81.1479 18.4161 80.2885 18.0867C79.386 17.7285 78.6411 17.0553 78.24 16.1671C78.154 15.9809 78.0824 15.766 78.0251 15.5511C77.71 14.3765 77.9248 13.3451 77.7959 12.1991C77.6956 11.2823 78.197 9.47737 78.4692 8.58922C78.77 7.6008 79.3717 5.66693 80.2025 5.03664C80.446 4.85041 80.7182 4.73581 81.019 4.70716C82.0218 4.62121 82.7237 5.46638 83.1964 6.22561C83.4543 6.64103 83.7121 7.1424 83.884 7.61513C84.2565 8.60355 84.5716 9.34845 84.6003 10.2223C85.1589 9.52034 85.9898 9.2052 86.792 8.8614C87.7374 8.4603 90.144 8.6322 91.1897 8.6895C91.949 8.7468 92.7225 8.8041 93.4817 8.90437C94.0118 8.96167 94.5991 9.01897 95.1148 9.1479C95.4872 9.24817 95.8454 9.34845 96.1891 9.47737C97.4927 10.0074 98.3092 11.0961 97.9368 12.5429C97.7219 13.4024 97.2778 14.1187 96.4327 14.4768C96.0602 14.6344 95.6878 14.6917 95.2867 14.7346C95.0718 14.749 94.814 14.7633 94.5991 14.8206C94.0404 14.9782 93.3958 15.0784 92.8228 15.1787C92.479 15.2503 92.1352 15.3076 91.7914 15.3792C91.6338 15.4079 91.4333 15.4365 91.2757 15.4795C90.1727 15.9952 87.5942 15.7374 86.6487 15.1787C85.8609 14.706 85.1446 14.2189 84.6576 13.517ZM57.1966 24.6618C56.7955 24.9197 56.4231 25.2205 56.022 25.464C55.5063 25.7792 54.8617 25.994 54.2887 26.1946C53.0138 26.653 51.6386 26.5384 50.3207 26.5384C49.5758 26.5384 49.0601 26.7389 48.2722 26.5384C46.8254 26.1659 46.1378 24.5902 47.1978 23.4155C47.5273 23.0574 48.1862 22.685 48.616 22.4415C49.2463 22.069 49.8909 21.6966 50.5069 21.2811C51.0656 20.9087 51.6959 20.4646 52.1399 19.9776C52.5267 19.5765 52.8992 19.1754 53.3003 18.7743C53.5008 18.5737 53.73 18.3588 53.9162 18.1296C54.4892 17.4707 55.0192 16.2817 55.406 15.5082C55.6352 15.0355 55.8071 14.6057 55.936 14.1043C56.065 13.6173 56.1652 13.1302 56.2942 12.6432C56.3801 12.328 56.4231 11.8983 56.4517 11.5688C56.509 10.9958 56.5807 10.4085 56.6953 9.83549C57.0391 8.1165 57.8556 6.55508 59.7035 6.11101C61.2076 5.75288 63.0555 7.01348 63.5426 8.43165C63.8577 9.33412 63.7002 10.2939 63.5139 11.2107C63.428 11.6548 63.2991 12.1561 63.2847 12.5859C63.2561 13.9324 62.8836 14.9065 62.6258 16.1814C62.4825 16.8834 62.2247 17.442 61.8379 18.0437C61.6087 18.4161 61.3795 18.7456 61.2363 19.1754C61.1217 19.4619 61.0214 19.7197 60.9211 19.9776C61.4798 19.6051 62.1531 19.3043 62.6115 19.1037C63.2418 18.8172 64.4021 18.3302 65.0897 18.2729C65.7916 18.2156 68.3128 18.5021 68.9574 18.2013C69.029 17.7715 69.0147 16.9693 69.0147 16.6112C69.0147 15.5511 68.9861 14.4911 68.9861 13.4311C68.9861 12.5286 68.9861 11.5975 69.029 10.6807C69.072 9.93577 69.1436 9.10492 69.3442 8.38867C69.5304 7.72973 70.2753 6.23993 70.791 5.83883C71.2208 5.52368 71.7508 5.36611 72.2808 5.50936C72.9541 5.69558 73.3409 6.26858 73.613 6.88455C73.699 7.07078 73.7706 7.3143 73.8709 7.50053C74.7877 9.06195 75.6901 10.4085 75.7045 12.3137C75.7188 14.176 75.9337 16.0382 75.948 17.9004C75.948 17.9148 75.948 17.9434 75.948 17.9577C76.2488 18.0867 77.2372 18.0867 77.5094 18.0867C78.0824 18.101 78.6554 18.1153 79.2141 18.2156C79.9303 18.3588 80.6752 18.6167 81.4058 18.6597C82.8526 18.7456 84.7722 19.3186 84.9727 21.009C85.0873 21.9544 84.5573 22.7423 83.8267 23.2866C82.824 24.0315 82.2366 23.9169 81.1193 23.9742C80.9617 23.9885 80.9044 24.0029 80.7612 24.0745C80.002 24.4183 79.4433 24.4756 78.6124 24.4326C78.4692 24.4326 78.3403 24.4469 78.2113 24.4756C77.4235 24.6475 76.9364 24.8337 76.0769 24.8051C76.0196 24.8051 75.9337 24.7907 75.8334 24.7907C75.8334 24.9053 75.8334 25.0199 75.8334 25.0772C75.8047 26.0227 75.8334 26.9681 75.8764 27.8993C75.948 29.7328 75.7904 31.5378 75.8334 33.3571C76.2345 32.4259 76.9507 31.724 77.9965 31.4089C76.6356 30.1912 76.0053 28.329 77.4808 26.8822C78.0538 26.3092 78.6697 25.7935 79.5006 25.6646C80.0593 25.5786 80.6896 25.6789 81.2626 25.6502C81.7353 25.6216 82.4085 25.7075 82.8526 25.5929C83.5545 25.421 84.3567 25.6789 85.0587 25.6646C86.4912 25.6646 87.9523 25.5786 89.3705 25.6932C91.6052 25.8508 95.1864 25.421 97.0916 26.6673C98.6674 27.6987 99.0685 30.2772 97.2922 31.3516C96.5473 31.7956 95.5589 31.8673 94.7137 31.9102C94.241 31.9246 93.625 31.9246 93.1523 32.0248C92.9087 32.0821 92.6652 32.0821 92.4074 32.0965C92.393 32.3686 92.3071 32.5835 92.1209 32.913C92.1065 32.9273 92.0922 32.9416 92.0779 32.9703C92.0922 33.0419 92.0922 33.1135 92.0922 33.1708C92.1209 33.9301 92.1209 34.675 92.0779 35.4342C92.0636 35.6634 92.1065 35.8783 92.1352 36.0931C92.2068 36.4799 92.2498 36.838 92.2355 37.2248C92.2211 37.8264 92.1352 38.4424 92.0779 39.0441C92.0492 39.4452 91.949 40.2474 91.9919 40.6341C92.1352 41.379 92.0779 42.3245 92.0349 43.0694C92.0063 43.6567 91.9633 44.2727 91.9633 44.86C91.9633 45.3327 92.1782 45.8771 92.2211 46.3928C92.2211 46.5217 92.2211 46.6506 92.2211 46.7939C92.0922 48.785 92.0349 50.6186 92.2211 52.6098C92.2928 53.3547 92.2498 54.2285 92.1209 54.9734C92.0779 55.1883 92.1065 55.3315 92.1352 55.5607C92.2068 56.0191 92.2211 56.4059 92.1495 56.8643C92.1209 57.0362 92.1209 57.2941 92.1209 57.466C92.1352 57.8384 92.1352 58.2108 92.1495 58.5833C92.1638 59.1706 92.1782 59.8009 92.1352 60.3882C92.0063 61.6775 92.0922 63.11 91.7914 64.3706C91.7341 64.5998 91.7054 64.7144 91.7627 64.9292C91.8487 65.2444 91.8773 65.5166 91.8487 65.846C91.8344 66.1469 91.7771 66.3904 91.6911 66.6626C91.6195 66.9061 91.6195 67.0637 91.6481 67.3215C91.6768 67.8372 91.5479 68.5678 91.4189 69.0692C91.2041 69.9716 90.76 71.0317 89.7286 71.2322C89.1842 71.3468 88.6542 71.1463 88.2531 70.7738C88.0669 70.5876 87.1501 69.2697 87.0642 69.0262C86.9352 68.711 86.8779 68.2097 86.835 67.8659C86.792 67.565 86.749 67.2642 86.706 66.9634C86.6774 66.8345 86.5914 66.6196 86.5341 66.4763C86.3909 66.1039 86.2763 65.7314 86.2047 65.3303C86.1187 64.8003 86.1474 64.1557 86.0041 63.64C85.6603 62.3078 85.4311 61.305 85.5027 59.9155C85.5314 59.4714 85.5027 58.9701 85.4884 58.526C85.4741 57.7238 85.4454 56.9216 85.4168 56.1194C85.3738 54.8731 85.3308 53.6412 85.2879 52.3949C85.2735 52.2373 85.2592 52.1084 85.2162 51.9508C85.1016 51.3922 85.073 50.9481 85.116 50.3751C85.1446 50.1173 85.1303 49.8594 85.116 49.5872C85.1016 49.1288 85.1303 48.7277 85.2306 48.2837C85.2879 48.0115 85.3881 47.3239 85.3452 47.0374C85.2019 46.622 85.1016 46.2209 85.0873 45.7625C85.073 45.4473 85.1016 45.1322 85.1016 44.817C85.0587 43.628 84.9154 42.6969 85.116 41.4936C85.1589 41.1928 85.3881 39.9609 85.3308 39.66V39.6457C85.1876 39.2016 85.116 38.9008 85.0873 38.4281C85.0443 37.7691 85.0587 37.0099 85.073 36.351C85.073 35.9069 85.073 35.4628 85.0873 35.0188C85.1016 34.7179 85.1016 34.3168 85.1733 34.0303C85.3165 33.4717 85.3022 32.8843 85.1733 32.3257C83.97 32.4403 82.5948 32.6122 81.3055 32.5549C81.8929 33.3571 82.251 34.4028 82.2223 35.248C82.208 35.8639 82.0648 36.5229 82.1364 37.1388C82.165 37.454 82.2366 37.7405 82.2939 38.0556C82.3799 38.5427 82.4085 39.0011 82.3512 39.5025C82.1794 41.0066 82.3226 42.6396 82.4659 44.1437C82.5804 45.4616 82.738 46.7795 82.7953 48.0974C82.824 48.8567 82.8096 49.6302 82.824 50.3894C82.8383 51.1057 83.0388 51.8219 83.0675 52.5525C83.1105 54.0996 83.0532 55.6467 83.1248 57.1795C83.1678 57.9673 83.268 58.7122 83.2394 59.5001C83.2107 60.2736 83.4113 61.0042 83.4256 61.7921C83.4399 62.58 83.1534 63.3535 83.2251 64.0841C83.2394 64.3562 83.2537 64.6284 83.2394 64.9006C83.1964 65.5452 82.9815 66.1755 82.4229 66.548C81.8785 66.9061 81.2196 66.8488 80.6609 66.5623C79.6582 66.0323 79.2571 64.8719 79.0135 63.8549C78.8846 63.3392 78.7843 62.6516 78.6124 62.1645C78.283 61.2907 78.1254 60.4885 77.9821 59.5717C77.8962 59.0417 77.8102 58.526 77.667 58.0103C77.2516 56.4632 77.1656 55.045 76.9507 53.4693C76.7502 51.9938 76.4923 50.5327 76.2775 49.0429C76.0626 47.5961 76.1485 46.1063 75.9766 44.6594C75.9337 45.5189 75.862 46.3784 75.8047 47.195C75.7474 48.0545 75.8764 48.9713 75.8907 49.8451C75.8907 51.6787 75.8907 53.5123 75.8907 55.3459C75.905 57.1651 76.0339 58.9701 76.0339 60.7893C76.0339 61.7921 75.8047 62.6659 75.7045 63.64C75.6758 64.0125 75.6615 64.3706 75.6328 64.743C75.6042 65.2874 75.5182 65.7887 75.4036 66.3044C75.2174 67.121 75.1458 67.9661 74.9739 68.7827C74.8593 69.3413 74.9453 69.6135 74.6444 70.1865C74.4152 70.6162 74.3579 71.2036 74.3149 71.6763C74.229 72.4642 74.1431 73.2664 73.5701 73.868C73.083 74.3694 72.4384 74.6845 71.7221 74.527C70.5475 74.2548 70.1177 72.9082 69.8742 71.8768C69.7739 71.4757 69.7023 71.0603 69.6307 70.6592C69.602 70.4444 69.5734 70.2151 69.5304 70.0003C69.2869 69.1694 68.9717 68.3959 68.9431 67.4934C68.9144 66.5909 69.0147 65.7601 68.8858 64.8433C68.7425 63.8835 68.7998 62.7519 68.8142 61.7634C68.8428 60.8466 68.8285 59.9298 68.8142 59.013C68.8142 58.0819 68.9574 57.1508 68.9431 56.2197C68.9288 55.2742 68.7712 54.3145 68.7998 53.369C68.8285 52.6814 68.8858 51.9795 68.9144 51.2919C68.9431 50.8908 68.9574 50.4897 68.9717 50.0743C68.9717 49.8881 68.9861 49.6445 68.9717 49.444C68.9431 49.2864 68.9288 49.1432 68.9001 49.0142C68.8858 49.1145 68.8715 49.2005 68.8571 49.2864C68.6279 50.7189 68.6136 52.1657 68.4131 53.6125C68.2268 54.8731 68.4847 56.191 68.3271 57.4946C68.1695 58.8125 67.8974 60.2163 67.5822 61.5056C67.2528 62.8808 66.6081 65.3733 65.3046 66.1182C64.7316 66.4477 64.0583 66.5623 63.4423 66.2471C62.4682 65.7601 62.2533 64.5568 62.196 63.5684C62.1674 63.2246 62.1674 62.8808 62.1674 62.537C62.1674 62.3364 62.1817 62.1359 62.1674 61.9353C62.0528 60.3453 62.3679 58.8984 62.3823 57.337C62.3823 56.807 62.4969 56.32 62.5828 55.7899C62.6115 55.5894 62.6401 55.3745 62.6401 55.1596C62.6258 54.4577 62.4682 53.7701 62.4539 53.0539C62.4539 51.5927 62.6544 50.2605 62.3966 48.8137C62.3393 48.4842 62.3106 48.1547 62.3106 47.8253C62.2963 46.6936 62.5828 45.6192 62.5828 44.5162C62.5828 43.7856 62.6115 43.055 62.5828 42.3388C62.5398 41.5366 62.6831 40.7774 62.6544 40.0038C62.6258 38.7576 62.5685 37.5686 62.6688 36.3223C62.8407 34.1736 63.5426 31.3229 66.1927 31.2513C67.2814 31.2226 68.2841 31.8386 68.9144 32.7124C68.8858 32.4832 68.8715 32.2827 68.8571 32.0821C68.8285 31.7527 68.8142 31.4232 68.8142 31.0794C68.8428 30.1483 68.7998 29.2315 68.8715 28.286C68.9144 27.6414 68.9717 25.6789 68.8858 24.5472C68.2555 24.5042 67.6109 24.4899 66.9806 24.4469C66.1641 24.3896 65.3619 24.1318 64.574 24.1031C64.044 24.0745 63.5139 24.0458 62.9839 23.9742C63.2131 24.2464 63.3993 24.5759 63.4996 24.934C64.2302 27.4695 63.0412 30.2342 62.5398 32.7268C62.4109 33.3714 62.2533 33.9874 61.9812 34.6033C61.7663 35.0761 61.5228 35.5345 61.3222 36.0072C60.8352 37.0815 60.606 37.9267 60.7492 39.1014C60.8208 39.6171 60.9211 40.1041 60.9784 40.6055C61.05 41.3361 61.05 42.0523 60.9784 42.7686C60.8495 43.9575 60.7779 45.1465 60.7206 46.3355C60.6633 47.4815 60.606 48.8137 60.7349 49.9597C60.8495 50.9338 60.8065 51.9365 60.7349 52.9106C60.6346 54.1855 60.3911 55.747 60.5916 56.9932C60.7062 57.7524 60.7779 58.483 60.6776 59.2566C60.606 59.8296 60.4627 60.3882 60.3768 60.9756C60.3051 61.4769 60.4198 62.0499 60.3768 62.58C60.3195 63.1816 60.1476 63.6973 60.0473 64.2703C59.99 64.6714 59.9613 65.0868 59.9327 65.4879C59.8897 66.0466 59.8468 66.5909 59.7895 67.1353C59.6462 68.4532 59.3597 70.0719 58.357 71.0317C57.8126 71.5617 57.0964 71.8912 56.3371 71.619C55.1195 71.1606 54.833 69.413 54.833 68.267C54.833 67.8372 54.79 67.3788 54.7614 66.9491C54.7184 66.2615 54.6754 65.5595 54.6181 64.8719C54.5752 64.0841 54.5179 63.2962 54.4606 62.5083C54.4319 62.0643 54.3746 61.4483 54.4176 61.0185C54.4749 60.5028 54.5179 59.9871 54.4606 59.4714C54.3889 58.9128 54.3173 58.3971 54.2743 57.8384C54.2027 57.0505 54.3316 56.4202 54.5322 55.6753C54.6468 55.2313 54.7471 54.8302 54.7184 54.3718C54.6325 53.0825 54.6038 51.7789 54.6325 50.4897C54.6325 49.8737 54.7757 49.2578 54.7757 48.6561C54.7757 48.0831 54.7041 47.5101 54.7041 46.9228C54.7184 45.6335 54.6611 44.244 54.8044 42.9548C54.8187 42.7399 54.8903 42.2242 54.919 41.8088C54.5608 41.9807 54.2027 42.1526 53.8446 42.2958C53.2286 42.525 52.5554 42.6396 51.9107 42.7542C50.4639 42.9977 47.7995 43.4418 47.0402 41.8231C46.94 41.6369 46.897 41.422 46.8827 41.2215C46.7824 39.7746 48.3438 39.0154 49.3466 38.3565C50.1488 37.8264 50.9366 37.2105 51.7102 36.6375C52.1972 36.2794 52.6843 35.9069 53.1713 35.5345C53.4005 35.3626 53.7013 35.1477 53.9162 34.9471C55.5063 32.8414 56.3085 28.9307 56.6809 26.3665C56.7669 25.7648 56.9388 25.1775 57.1966 24.6618ZM59.1592 22.9428C59.1735 22.9428 59.1878 22.9428 59.1878 22.9285C59.4886 22.8425 59.8181 22.7852 60.1619 22.7852C60.0473 22.642 59.9613 22.4844 59.9041 22.2982C59.8754 22.2122 59.8468 22.112 59.8324 22.0117C59.7751 22.0977 59.7178 22.1693 59.6605 22.2552C59.4886 22.4701 59.3311 22.7136 59.1592 22.9428ZM7.03066 43.8286C7.18823 43.9862 7.34581 44.1294 7.50338 44.3729C7.76123 44.7597 7.89016 45.1608 8.0907 45.5476C8.2053 45.7625 8.29125 45.8771 8.53478 45.92C8.86425 45.963 10.0962 46.2782 10.4257 46.2495C10.4686 46.1349 10.5116 45.9057 10.5259 45.8198C10.5259 45.8054 10.5403 45.7911 10.5403 45.7768C10.5259 45.7481 10.5116 45.7195 10.5116 45.6908C10.4257 45.3614 10.397 45.0892 10.44 44.7454C10.483 44.4446 10.5832 44.1008 10.5689 43.7999C10.5689 43.5564 10.5259 43.4275 10.483 43.2126C10.3397 42.6396 10.3684 42.1239 10.4686 41.5509C10.5116 41.2215 10.5976 40.8777 10.6405 40.5482C10.6692 40.3333 10.6262 39.9895 10.6119 39.7603C10.5403 38.8865 10.8697 34.9615 9.7524 34.6177C8.7783 34.3168 8.10503 34.3168 7.66096 35.3196C7.50338 35.6491 7.57501 36.9383 7.58933 37.3251C7.58933 37.8837 7.53203 38.3708 7.41743 38.9008C7.36013 39.1873 7.30283 39.4595 7.25986 39.7603C7.15958 40.4479 7.13093 41.2788 7.08796 41.995C7.05931 42.4391 7.04498 42.8832 7.03066 43.3272C7.03066 43.4705 7.01633 43.6567 7.03066 43.8286ZM132.03 46.536C131.257 46.3928 130.598 46.0346 129.652 45.3327C128.291 44.3013 127.418 43.0694 127.203 41.3504C127.188 41.4363 127.188 41.508 127.174 41.5939C127.074 42.4391 126.959 43.2699 126.916 44.1294C126.902 44.4875 126.773 45.7338 126.916 46.1063C127.274 46.3355 128.248 46.6793 128.592 46.7079C129.538 46.7652 130.483 46.579 131.443 46.5503C131.629 46.536 131.83 46.536 132.03 46.536ZM133.907 46.622C134.007 46.622 134.093 46.622 134.179 46.622C134.637 46.622 135.081 46.622 135.54 46.622C135.081 46.6076 134.637 46.579 134.193 46.6076C134.107 46.6076 134.007 46.622 133.907 46.622ZM137.961 46.6076C138.233 46.622 138.505 46.6506 138.749 46.6649C139.365 46.7222 139.981 46.7652 140.596 46.7795C141.155 46.7795 142.931 46.7939 143.161 46.0776C143.189 45.8054 143.189 45.476 143.189 45.1895C143.189 44.6165 143.189 44.0291 143.189 43.4562C143.189 42.8545 143.175 42.2672 143.161 41.6799C143.161 41.422 143.161 41.1498 143.146 40.8777C142.846 43.184 141.614 44.817 139.164 46.1922C138.777 46.4071 138.376 46.536 137.961 46.6076ZM143.132 38.3135C143.204 37.1818 143.361 35.9356 143.275 34.8182C143.132 32.7984 143.089 30.7786 143.06 28.7444C143.032 27.6844 143.06 26.5814 143.146 25.5213C143.175 25.2491 143.189 24.977 143.175 24.6905C143.146 24.977 143.089 25.2921 143.032 25.6932C142.846 27.183 143.046 28.6442 142.702 30.1483C142.645 30.4204 142.588 30.664 142.631 30.9218C142.702 31.3516 142.774 31.681 142.774 32.1251C142.788 32.8414 142.631 33.5433 142.645 34.2452C142.659 34.6033 142.76 34.8039 142.888 35.119C143.017 35.4628 143.118 35.778 143.146 36.1504C143.204 36.881 143.075 37.5829 143.132 38.3135ZM143.146 23.8739C143.118 23.4728 143.089 23.0717 143.089 22.6563C143.089 22.3698 143.089 22.0833 143.103 21.7825C143.103 21.3384 143.118 20.4503 142.86 20.0492C142.688 19.777 142.258 19.7054 141.943 19.6911C139.866 19.5335 137.689 19.9919 135.597 19.7484C134.623 19.6194 133.649 19.863 132.632 19.7484C131.758 19.6624 130.884 19.7054 130.01 19.6911C129.609 19.6911 129.208 19.6624 128.807 19.6338C128.506 19.6194 127.79 19.5908 127.532 19.7627C127.346 19.8773 127.346 20.3643 127.346 20.5362C127.36 20.9517 127.332 21.3814 127.289 21.7968C127.26 22.2552 127.16 22.9571 127.203 23.4012C127.217 23.5015 127.231 23.6161 127.231 23.7164C127.303 23.3726 127.418 23.0288 127.589 22.7136C128.363 21.2238 130.039 20.7081 131.572 20.436C131.93 20.3643 132.331 20.3643 132.689 20.35C133.205 20.3214 133.706 20.3214 134.208 20.3214C135.024 20.307 135.855 20.307 136.657 20.3357C137.144 20.3643 137.459 20.4503 137.903 20.5649C138.09 20.6079 138.262 20.5649 138.448 20.5219C139.393 20.2641 140.31 20.5649 141.141 21.009C141.943 21.4387 142.401 22.1979 142.803 22.9858C142.974 23.3296 143.089 23.6161 143.146 23.8739ZM134.952 27.0827C134.666 27.1973 133.935 27.4409 133.806 27.6271C133.749 27.6844 133.649 27.8276 133.606 27.9279C133.606 27.9422 133.606 27.9422 133.606 27.9566C133.706 28.3577 133.749 28.6585 133.678 29.0739C133.405 30.5923 133.448 32.297 133.463 33.8298C133.477 34.589 133.405 35.3769 133.377 36.1361C133.362 36.5802 133.348 37.0242 133.334 37.4683C133.334 37.6689 133.334 37.9697 133.362 38.1702C133.463 38.4997 133.692 39.2589 133.921 39.4738C134.136 39.6744 134.867 39.6887 135.139 39.6887C135.296 39.6887 135.898 39.6744 136.055 39.5741C136.17 39.3879 136.285 38.2562 136.328 38.027C136.557 36.394 136.285 34.8469 136.285 33.2138C136.285 31.5808 136.27 29.9334 136.184 28.3004C136.156 27.7847 136.141 27.5984 135.798 27.2403C135.611 27.1544 135.153 27.0684 134.952 27.0827ZM25.5098 19.8916C25.4096 19.9776 25.3379 20.0635 25.3093 20.1924C25.2233 20.4933 25.2663 21.0806 25.2663 21.4101C25.2663 22.4415 25.2663 23.4728 25.2663 24.5042C25.2663 25.0343 25.295 26.08 25.6531 26.5241C25.9109 26.8249 26.441 26.8535 26.8134 26.8392C27.8735 26.8249 29.0911 26.7533 30.0795 27.1973C30.1655 27.2403 30.5379 27.3979 30.6382 27.3836C30.7241 27.3692 30.8244 27.3263 30.9104 27.2976C31.1396 27.226 31.3688 27.14 31.6123 27.0827C32.5004 26.8392 33.3313 26.7676 34.2481 26.7676C34.6778 26.7819 35.2651 26.8249 35.6806 26.7246C35.9384 26.6673 36.1246 26.5384 36.3109 26.3665C36.4255 26.2519 36.6976 25.994 36.8122 25.8508C36.8266 25.6359 36.7836 25.2205 36.7836 25.0199C36.7693 24.5042 36.7979 23.9885 36.8122 23.4872C36.8409 22.8712 36.8552 22.2696 36.8409 21.6536C36.8266 21.1236 36.7406 19.3473 36.2392 19.0178C36.1533 18.9462 35.9814 18.9605 35.8811 18.9891C33.8756 19.3186 32.4288 20.1351 30.2944 19.8916C29.4349 19.7913 28.5324 19.7484 27.6586 19.734C27.2288 19.7197 25.9253 19.7197 25.5098 19.8916ZM171.596 27.0111L173.515 26.7389L173.616 26.7676C173.63 26.4524 173.587 26.1516 173.429 25.8938C173.343 25.7505 173.171 25.4497 173.028 25.2778C172.842 25.2348 172.512 25.2348 172.355 25.2205C172.183 25.2062 171.753 25.1345 171.467 25.1202C171.467 25.1775 171.467 25.2348 171.481 25.2921C171.524 25.7219 171.61 26.0943 171.61 26.5384C171.596 26.696 171.596 26.8535 171.596 27.0111ZM162.256 25.7075C162.184 26.0513 162.113 26.6243 162.084 27.0827C162.671 27.1687 163.717 27.0827 164.075 27.0254C164.204 26.9968 164.376 26.9825 164.533 26.9681C164.548 26.7819 164.562 26.567 164.533 26.4095C164.405 26.0084 164.405 25.6073 164.405 25.1918C164.118 25.2205 163.832 25.2205 163.545 25.2062C163.402 25.1918 163.201 25.1632 163.058 25.1775C163.029 25.1775 163.015 25.1775 162.986 25.1918C162.857 25.2921 162.37 25.5929 162.256 25.7075ZM162.199 34.1306C162.242 34.5317 162.284 34.9471 162.327 35.162C162.385 35.4342 162.399 35.692 162.428 35.9499C162.514 36.0502 162.657 36.1934 162.743 36.2794C163.101 36.6231 164.104 37.2105 164.634 36.9383C164.677 36.6231 164.591 35.7923 164.591 35.5488C164.591 35.205 164.691 34.4171 164.548 34.0303C164.319 34.0447 163.875 34.1163 163.731 34.1306C163.287 34.1736 162.814 34.1449 162.356 34.1306C162.313 34.1306 162.27 34.1306 162.199 34.1306ZM171.538 33.7152C171.538 33.8155 171.553 33.9301 171.553 33.9874C171.567 34.3741 171.596 34.7466 171.61 35.119C171.61 35.4055 171.596 35.692 171.581 35.9642C171.567 36.0215 171.567 36.1218 171.567 36.1934C171.882 36.265 172.512 36.2077 172.799 36.1934C172.985 36.0931 173.315 35.7064 173.415 35.5631C173.658 35.2766 173.601 34.7323 173.601 34.3741C173.601 34.2166 173.63 33.7725 173.616 33.5146C173.272 33.4287 172.77 33.3571 172.512 33.4287C172.312 33.486 171.825 33.6149 171.538 33.7152Z" fill="#FEFEFE"/>
<path id="Vector_2" fill-rule="evenodd" clip-rule="evenodd" d="M172.197 32.2827C172.785 32.1251 173.716 32.254 174.274 32.4976C174.962 32.7841 174.79 33.7582 174.79 34.3741C174.79 35.119 174.833 35.735 174.332 36.3223C174.002 36.7234 173.501 37.3107 172.956 37.368C172.355 37.4253 171.252 37.497 170.822 37.1532C170.163 36.6375 170.435 36.0215 170.421 35.1477C170.349 32.956 169.991 32.87 172.197 32.2827ZM190.347 2.45815H189.631C189.244 2.45815 189.516 1.98542 189.301 1.84217C189.187 1.77055 188.929 1.78487 188.886 2.01407C188.857 2.21462 188.957 2.45815 188.743 2.58707C188.456 2.75897 188.384 2.6014 188.084 2.74465C187.654 2.95952 188.012 3.27467 188.284 3.27467C188.456 3.27467 188.814 3.04547 188.886 3.37494C188.9 3.47522 188.886 3.63279 188.914 3.76172C188.929 3.87632 188.957 3.94794 188.972 4.10552C188.972 4.26309 189 4.33472 189.043 4.43499C189.144 4.62121 189.115 4.69284 189.287 4.82176C189.444 4.93636 189.387 4.97934 189.645 5.07961C189.731 5.12259 189.846 5.17989 189.96 5.17989C190.232 5.17989 190.934 5.20854 191.121 5.13691C191.206 5.09394 191.221 5.07961 191.35 5.06529C191.407 5.06529 191.579 5.05096 191.622 5.02231C191.765 4.95069 191.794 4.46364 191.55 4.46364C191.049 4.46364 191.292 4.43499 190.92 4.54959C190.82 4.57824 190.719 4.63554 190.605 4.63554H189.86C189.674 4.63554 189.559 4.39202 189.53 4.27742C189.502 4.16282 189.516 4.09119 189.473 3.97659C189.359 3.70442 189.402 3.63279 189.402 3.27467C189.402 3.17439 189.473 3.13142 189.559 3.10277C189.745 3.0598 189.803 2.95952 190.046 2.97385C190.232 2.98817 190.476 2.90222 190.548 3.10277C190.633 3.38927 190.39 3.90497 190.777 3.90497C190.891 3.90497 190.992 3.83334 191.035 3.76172C191.192 3.51819 190.977 3.11709 191.264 3.11709C191.378 3.11709 191.479 3.18872 191.608 3.18872C191.765 3.18872 191.894 3.20304 192.009 3.14574C192.309 2.97385 192.295 2.5441 191.966 2.45815C191.851 2.4295 191.565 2.45815 191.421 2.45815C191.192 2.45815 191.092 2.45815 191.106 2.21462C191.106 1.75622 191.221 1.44108 190.877 1.44108C190.762 1.44108 190.662 1.49838 190.619 1.57C190.433 1.78487 190.748 2.45815 190.347 2.45815ZM194.358 3.07412C194.358 2.91655 194.587 2.74465 194.644 2.68735L194.859 2.40085C194.874 2.3722 194.888 2.34355 194.902 2.30057C195.089 1.92812 195.461 1.87082 195.461 1.52703C195.461 1.35513 195.303 1.19755 195.174 1.19755C194.931 1.19755 194.859 1.5127 194.816 1.61298C194.773 1.72757 194.616 1.8565 194.473 1.98542C194.286 2.17165 194.401 2.24327 194.2 2.45815C194.086 2.6014 194.129 2.67302 193.914 2.91655C193.828 3.0025 193.57 3.43224 193.484 3.58982C193.413 3.71874 193.455 3.69009 193.341 3.80469C193.255 3.90497 193.183 4.03389 193.097 4.13417C192.968 4.32039 193.011 4.19147 192.925 4.49229C192.854 4.72149 192.754 4.92204 192.983 5.06529C193.155 5.17989 193.341 5.22286 193.455 5.00799L193.642 4.62121C193.67 4.53526 193.713 4.22012 193.857 4.06254C193.885 4.01957 193.9 4.00524 193.943 3.96227C194 3.90497 194.086 3.83334 194.143 3.79037C194.329 3.64712 194.659 3.30332 194.831 3.63279C195.103 4.16282 194.716 4.09119 194.902 4.66419C194.931 4.75014 194.945 4.83609 194.974 4.90771C195.003 4.99366 195.06 5.03664 195.117 5.07961C195.232 5.17989 195.533 5.20854 195.619 5.20854C196.034 5.16556 195.862 5.16556 196.12 5.07961C196.192 5.05096 196.249 5.03664 196.32 4.97934C196.378 4.92204 196.421 4.86474 196.478 4.80744C196.535 4.75014 196.578 4.73581 196.65 4.69284C196.693 4.66419 196.707 4.64986 196.736 4.62121C197.037 4.37769 196.936 4.34904 197.037 4.11984C197.08 4.03389 197.108 4.03389 197.137 3.91929C197.166 3.77604 197.123 3.53252 196.865 3.53252C196.693 3.53252 196.392 4.13417 196.292 4.30607C196.263 4.37769 196.22 4.42067 196.163 4.46364C195.905 4.63554 195.919 4.63554 195.662 4.63554C195.332 4.63554 195.504 4.16282 195.461 3.63279C195.447 3.46089 195.346 3.34629 195.232 3.26034L194.788 3.11709C194.716 3.11709 194.358 3.30332 194.358 3.07412ZM162.8 3.81902C162.8 3.97659 162.614 4.32039 162.456 4.40634C162.385 4.44932 162.299 4.44932 162.27 4.34904V3.43224C162.284 3.20304 162.6 3.20304 162.7 3.46089C162.743 3.57549 162.8 3.64712 162.8 3.81902ZM160.723 3.74739C160.651 3.64712 160.68 3.66144 160.694 3.53252C160.694 3.44657 160.709 3.33197 160.723 3.26034C160.766 2.87357 160.351 2.78762 160.308 3.04547C160.279 3.27467 160.293 4.13417 160.293 4.40634C160.293 4.57824 160.365 4.63554 160.408 4.75014C160.422 4.79311 160.422 4.86474 160.465 4.90771C160.637 5.15124 160.924 4.50661 160.938 4.37769C160.966 4.19147 160.966 4.19147 161.067 4.06254C161.181 3.91929 161.138 3.87632 161.339 3.66144C161.382 3.63279 161.425 3.58982 161.454 3.56117C161.539 3.47522 161.554 3.36062 161.668 3.33197C161.74 3.37494 161.769 3.40359 161.769 3.50387V4.16282C161.769 4.26309 161.74 4.39202 161.654 4.39202C161.554 4.39202 161.454 4.04822 161.239 4.19147C161.095 4.29174 161.124 4.53526 161.267 4.64986C161.296 4.67851 161.597 4.87906 161.296 5.05096C161.21 5.10826 160.952 5.25151 160.952 5.36611C160.952 5.53801 161.296 5.49504 161.425 5.48071C161.568 5.45206 161.74 5.25151 161.826 5.17989C161.926 5.09394 161.955 5.02231 162.112 4.97934C162.313 4.93636 162.227 5.00799 162.442 4.85041C162.585 4.75014 162.671 4.75014 162.771 4.69284C163.001 4.59256 163.029 4.39202 163.158 4.14849C163.201 4.04822 163.287 3.93362 163.287 3.81902C163.287 3.71874 163.13 3.40359 163.087 3.33197C163.029 3.26034 162.986 3.20304 162.929 3.13142C162.9 3.08845 162.886 3.07412 162.843 3.03115C162.728 2.8879 162.614 2.90222 162.485 2.8879C162.198 2.84492 162.299 2.6587 162.213 2.4868C162.112 2.34355 161.726 2.30057 161.683 2.51545C161.64 2.80195 161.797 2.73032 161.511 2.97385C161.167 3.27467 161.411 3.07412 161.138 3.23169C160.852 3.40359 160.895 3.66144 160.723 3.74739ZM170.421 3.54684C170.421 3.50387 170.435 3.37494 170.45 3.34629C170.478 3.21737 170.707 3.17439 170.879 3.46089C170.922 3.53252 170.951 3.56117 170.98 3.61847C171.08 3.76172 171.051 3.87632 170.98 4.00524C170.879 4.13417 170.779 4.43499 170.593 4.43499C170.378 4.43499 170.435 4.14849 170.435 4.06254C170.435 3.87632 170.421 3.73307 170.421 3.54684ZM170.808 4.77879C171.066 4.64986 170.994 4.76446 171.309 4.37769C171.352 4.32039 171.366 4.27742 171.381 4.20579C171.438 3.89064 171.567 3.93362 171.409 3.48954C171.309 3.21737 171.295 3.28899 171.109 3.10277C171.066 3.04547 171.008 2.98817 170.951 2.9452C170.822 2.81627 170.536 2.95952 170.45 2.78762C170.407 2.70167 170.464 2.58707 170.421 2.4868C170.335 2.30057 169.977 2.35787 169.977 2.51545C169.977 2.70167 170.034 2.8306 169.848 2.87357C169.633 2.9452 169.705 2.95952 169.576 3.10277C169.49 3.20304 169.375 3.21737 169.275 3.30332C169.203 3.36062 169.089 3.53252 168.988 3.53252C168.888 3.53252 169.003 3.26034 168.931 3.04547C168.888 2.95952 168.802 2.87357 168.673 2.8879C168.559 2.90222 168.501 2.98817 168.458 3.08845C168.415 3.23169 168.444 3.27467 168.444 3.44657C168.444 3.53252 168.43 3.44657 168.444 3.57549C168.458 3.63279 168.444 3.67577 168.444 3.73307C168.444 4.11984 168.43 3.94794 168.501 4.29174C168.559 4.60689 168.487 4.49229 168.659 4.73581C168.702 4.80744 168.731 4.87906 168.817 4.87906C168.888 4.87906 168.945 4.79311 168.974 4.73581C169.16 4.46364 168.96 4.44932 169.261 4.10552C169.404 3.94794 169.375 3.91929 169.504 3.73307C169.59 3.63279 169.662 3.46089 169.762 3.37494C169.948 3.20304 170.106 3.33197 170.106 3.46089V3.99092C170.106 4.11984 169.963 4.63554 169.733 4.30607C169.633 4.17714 169.662 4.16282 169.518 4.16282C169.39 4.16282 169.289 4.47797 169.49 4.64986C169.805 4.90771 169.476 5.06529 169.347 5.16556C169.304 5.19421 169.289 5.22286 169.246 5.25151C169.218 5.28016 169.175 5.28016 169.132 5.32314C169.017 5.48071 169.332 5.49504 169.447 5.49504C169.619 5.49504 169.676 5.43774 169.776 5.36611C169.891 5.30881 169.991 5.29449 170.091 5.20854C170.192 5.10826 170.149 5.05096 170.335 4.99366C170.464 4.95069 170.679 4.83609 170.808 4.77879ZM179.216 2.2003C179.216 2.0857 179.288 2.0284 179.288 1.92812C179.288 1.78487 179.131 1.35513 178.916 1.64163C178.744 1.8565 178.801 1.95677 178.729 2.07137C178.543 2.41517 178.758 2.45815 178.113 2.45815C177.999 2.45815 177.827 2.44382 177.727 2.47247C177.655 2.50112 177.555 2.6014 177.555 2.68735C177.555 2.85925 177.741 2.95952 177.87 2.95952C178.142 2.95952 178.142 2.90222 178.271 2.90222C178.601 2.90222 178.4 3.17439 178.357 3.28899C178.328 3.43224 178.343 3.43224 178.257 3.54684L178.028 4.01957C177.999 4.06254 177.999 4.09119 177.956 4.11984C177.741 4.37769 177.884 4.20579 177.741 4.43499L177.598 4.63554C177.483 4.79311 177.483 5.22286 177.641 5.22286C177.755 5.22286 177.727 5.20854 177.841 5.12259C177.899 5.07961 177.942 5.06529 177.999 5.02231C178.113 4.93636 178.085 4.86474 178.199 4.73581C178.314 4.57824 178.285 4.69284 178.4 4.42067C178.457 4.24877 178.529 4.23444 178.572 4.09119C178.586 4.00524 178.586 3.97659 178.643 3.90497C178.729 3.79037 178.858 3.56117 178.887 3.40359C178.916 3.30332 178.93 3.28899 178.959 3.21737C178.987 3.13142 178.973 3.07412 179.002 3.0025C179.102 2.716 179.718 2.70167 179.718 3.21737C179.718 3.56117 179.747 3.63279 179.603 3.89064C179.474 4.11984 179.532 4.00524 179.46 4.22012C179.417 4.33472 179.331 4.43499 179.216 4.46364C179.03 4.52094 178.543 4.34904 178.543 4.57824C178.543 4.64986 178.629 4.70716 178.672 4.75014C178.815 4.89339 178.815 4.97934 178.959 5.02231C179.116 5.09394 179.446 5.07961 179.603 4.96501C179.675 4.90771 179.775 4.75014 179.818 4.66419C179.875 4.54959 179.961 4.49229 180.004 4.34904C180.047 4.22012 180.133 4.11984 180.133 3.96227V2.81627C180.133 2.74465 180.033 2.63005 179.99 2.57275C179.918 2.50112 179.89 2.45815 179.789 2.41517C179.517 2.30057 179.216 2.4868 179.216 2.2003ZM172.684 3.28899C172.756 3.28899 172.885 3.23169 172.971 3.20304C173.243 3.10277 173.2 3.08844 173.444 2.9452C173.529 2.90222 173.601 2.8879 173.701 2.84492C173.888 2.7733 173.759 2.75897 174.203 2.61572C174.418 2.5441 174.475 2.47247 174.776 2.47247C174.976 2.47247 175.306 2.44382 175.435 2.52977C175.478 2.55842 175.492 2.58707 175.535 2.61572C175.621 2.68735 175.65 2.73032 175.721 2.8306C175.764 2.87357 175.764 2.8879 175.807 2.9452C175.95 3.20304 175.95 3.17439 175.836 3.38927C175.736 3.57549 175.75 3.67577 175.492 3.91929L175.12 4.11984C175.048 4.14849 174.962 4.14849 174.89 4.17714C174.618 4.30607 174.847 4.26309 174.461 4.32039C174.203 4.36337 174.231 4.44932 174.017 4.46364C173.845 4.46364 173.63 4.49229 173.773 4.69284C173.816 4.75014 173.859 4.79311 173.916 4.85041C174.174 5.12259 174.375 5.07961 174.747 4.97934C174.905 4.93636 174.905 4.85041 175.091 4.77879C175.248 4.70716 175.449 4.77879 175.635 4.54959C175.736 4.42067 175.836 4.37769 175.936 4.29174C175.993 4.24877 176.051 4.16282 176.108 4.10552C176.165 4.03389 176.223 3.99092 176.28 3.90497C176.394 3.73307 176.351 3.50387 176.394 3.26034C176.409 3.13142 176.366 3.04547 176.366 2.91655C176.366 2.70167 176.28 2.52977 176.122 2.41517C175.95 2.30057 176.022 2.3149 175.936 2.22895C175.821 2.12867 175.578 2.05705 175.377 2.05705H174.446C174.174 2.05705 174.131 2.11435 173.945 2.12867C173.716 2.143 173.73 2.2576 173.587 2.32922C173.515 2.3722 173.243 2.40085 173.014 2.51545C172.928 2.55842 172.856 2.58707 172.77 2.63005C172.641 2.68735 172.613 2.67302 172.512 2.7733C172.298 3.0025 172.469 3.28899 172.684 3.28899ZM156.741 2.87357C156.741 2.45815 156.855 2.47247 156.855 2.22895V1.46973C156.855 1.14025 156.225 1.02565 156.239 1.59865C156.239 1.84217 156.254 3.21737 156.225 3.34629C156.153 3.64712 156.096 3.96227 156.168 4.27742C156.196 4.37769 156.211 4.44932 156.239 4.56391C156.325 5.02231 156.526 4.97934 156.741 5.10826C156.898 5.20854 157.07 5.29449 157.256 5.29449C157.614 5.29449 157.471 5.30881 157.772 5.20854L158.331 5.00799L158.632 4.75014C158.861 4.53526 158.775 4.76446 158.961 4.33472C159.09 4.06254 159.376 3.83334 158.832 3.83334C158.574 3.83334 158.345 4.27742 158.159 4.42067C158.087 4.46364 158.03 4.47797 157.958 4.52094C157.7 4.69284 157.672 4.60689 157.5 4.67851C157.428 4.70716 157.371 4.76446 157.271 4.76446C157.156 4.76446 156.913 4.63554 156.87 4.57824C156.841 4.56391 156.798 4.49229 156.784 4.46364C156.741 4.34904 156.769 4.27742 156.769 4.13417C156.769 4.04822 156.755 4.03389 156.741 3.96227V2.87357ZM164.906 3.30332C164.906 3.17439 164.92 3.07412 164.949 2.97385C165.02 2.57275 164.992 1.8565 164.992 1.42675C164.992 1.09728 164.404 1.1116 164.39 1.57C164.376 2.52977 164.376 3.44657 164.376 4.40634C164.376 4.57824 164.419 4.67851 164.49 4.77879C164.519 4.82176 164.562 4.86474 164.605 4.90771C164.634 4.93636 164.648 4.93636 164.677 4.96501C164.834 5.07961 164.849 5.09394 165.049 5.17989C165.321 5.29449 165.278 5.29449 165.565 5.29449C165.88 5.29449 166.51 5.03664 166.696 4.86474C166.754 4.79311 166.825 4.75014 166.897 4.69284C167.069 4.56391 167.112 4.39202 167.212 4.22012C167.241 4.17714 167.484 3.83334 167.155 3.83334C166.768 3.83334 166.883 3.89064 166.553 4.14849C166.51 4.19147 166.51 4.17714 166.482 4.23444C166.424 4.30607 166.41 4.33472 166.338 4.39202C165.88 4.73581 165.894 4.57824 165.679 4.67851C165.493 4.77879 165.393 4.80744 165.207 4.69284C165.049 4.59256 164.906 4.53526 164.906 4.20579V3.30332ZM182.826 2.5441C182.826 2.93087 182.941 2.93087 182.941 3.40359C182.941 3.53252 182.927 3.74739 182.941 3.87632C182.955 4.01957 183.041 4.06254 183.056 4.24877C183.07 4.37769 183.113 4.52094 183.184 4.60689C183.27 4.72149 183.285 4.70716 183.385 4.87906C183.442 4.99366 183.5 5.06529 183.6 5.15124C183.772 5.32314 184.087 5.33746 184.259 5.17989C184.56 4.92204 184.445 4.80744 184.574 4.69284C184.646 4.63554 184.717 4.59256 184.717 4.46364C184.717 4.27742 184.76 4.03389 184.574 4.03389C184.345 4.03389 184.216 4.50661 184.001 4.50661C183.858 4.50661 183.829 4.43499 183.757 4.33472C183.614 4.17714 183.614 4.13417 183.557 3.89064C183.528 3.81902 183.514 3.76172 183.5 3.69009C183.457 3.53252 183.5 3.41792 183.428 3.26034C183.385 3.18872 183.356 3.16007 183.356 3.0598C183.342 2.81627 183.399 2.24327 183.313 2.0857C183.256 1.9711 183.099 1.89947 182.998 1.98542C182.798 2.143 182.826 2.3149 182.826 2.5441ZM185.648 2.35787C185.648 2.6014 185.677 2.61572 185.906 2.85925C186.021 2.97385 186.092 3.08845 186.15 3.24602L186.236 3.48954C186.336 3.80469 186.15 4.24877 186.465 4.24877C186.651 4.24877 186.823 4.10552 186.823 3.84767C186.823 3.36062 186.866 3.37494 186.694 3.11709L186.537 2.85925C186.408 2.67302 186.537 2.80195 186.322 2.52977C186.264 2.45815 186.221 2.44382 186.164 2.38652C186.092 2.30057 186.007 2.12867 185.863 2.12867C185.734 2.12867 185.648 2.22895 185.648 2.35787ZM180.42 1.95677C180.42 2.3149 180.391 2.30057 180.52 2.52977C180.563 2.6014 180.577 2.68735 180.62 2.75897C180.792 3.0598 180.706 3.08845 180.85 3.23169C180.978 3.38927 180.993 3.47522 181.251 3.51819C181.351 3.54684 181.437 3.54684 181.523 3.50387C181.781 3.34629 181.652 3.21737 181.551 3.04547C181.465 2.87357 181.322 2.78762 181.136 2.52977C181.107 2.47247 181.093 2.45815 181.05 2.41517C180.907 2.22895 181.007 2.18597 180.821 1.89947C180.678 1.65595 180.42 1.72757 180.42 1.95677ZM157.514 2.04272C157.514 2.15732 157.629 2.35787 157.758 2.4295C157.829 2.47247 157.915 2.4868 157.987 2.51545C158.102 2.57275 158.059 2.63005 158.245 2.63005C158.316 2.63005 158.402 2.55842 158.402 2.45815C158.402 2.35787 158.359 2.30057 158.302 2.24327C158.173 2.04272 158.173 2.11435 157.987 1.94245C157.887 1.82785 157.872 1.82785 157.743 1.82785C157.643 1.82785 157.514 1.94245 157.514 2.04272ZM166.353 1.65595C166.353 1.8565 166.539 2.01407 166.725 2.11435C166.911 2.2003 167.012 2.34355 167.112 2.22895C167.312 1.99975 167.026 1.84217 166.926 1.72757C166.797 1.54135 166.854 1.44108 166.553 1.44108C166.453 1.44108 166.353 1.55568 166.353 1.65595ZM165.708 2.01407C165.708 2.15732 165.866 2.3149 165.98 2.38652C166.066 2.45815 166.267 2.63005 166.353 2.63005C166.568 2.63005 166.582 2.4295 166.467 2.24327C166.367 2.0857 166.31 2.10002 166.238 2.0284C166.138 1.92812 166.123 1.82785 165.937 1.82785C165.823 1.82785 165.708 1.9138 165.708 2.01407ZM35.6948 17.8145C38.7747 17.3131 37.9152 23.1434 37.9725 24.977C38.0154 26.3092 38.1157 26.2519 37.1416 27.2117C35.7521 28.5725 34.4915 27.5411 31.913 28.2287C30.8959 28.5009 30.7957 28.8304 29.5924 28.286C28.8332 27.9422 27.6585 28.0139 26.8277 28.0425C24.4497 28.0855 24.0916 26.4811 24.0773 24.5186C24.0773 23.4872 24.0773 22.4415 24.0773 21.4101C24.0773 20.4073 23.934 19.6481 24.7792 18.9462C25.5814 18.2872 29.3632 18.588 30.4232 18.717C32.3141 18.9318 33.8039 18.1153 35.6948 17.8145ZM102.306 11.9269C102.492 12.6862 103.91 13.5886 104.641 13.6746C105.156 13.7319 105.772 13.9324 106.274 14.0757C107.047 14.2906 107.577 14.09 108.15 14.2762C110.142 14.9065 109.554 14.5627 111.703 14.663C113.479 14.7633 114.009 14.3335 114.353 16.1098C114.582 17.2701 114.31 18.3732 114.468 19.29C114.654 20.4073 114.611 21.539 114.539 22.6563C114.353 25.1489 113.408 26.4524 111.202 27.5698C110.013 28.1858 107.878 30.6496 107.305 31.8816C106.847 32.8557 106.503 33.6579 105.83 34.5031C105.572 34.8469 105.386 35.5774 105.343 36.0072C104.956 40.3763 101.876 38.8722 99.4695 40.1184C98.1373 40.8204 99.2976 41.7945 100.171 42.1096C101.246 42.5107 102.177 42.6253 103.266 42.9978C103.81 44.5448 102.922 45.0319 102.75 46.3355C102.707 46.6793 102.607 48.0831 102.564 48.212C102.105 49.487 101.547 52.0511 101.518 53.326C101.504 54.601 101.618 56.1194 101.346 57.3227C100.988 58.9128 101.446 60.1304 101.174 61.9353C101.117 62.2362 101.26 62.4367 101.274 62.8092C101.289 63.3822 101.103 64.4136 101.16 64.7717C101.432 66.3331 100.974 70.9744 102.707 71.4901C103.667 70.4014 105.214 63.0097 105.357 61.305C105.443 60.3453 105.672 59.5287 105.858 58.5976C106.159 57.0649 106.03 53.8561 106.188 52.5811C106.288 51.6643 106.503 50.7189 106.632 49.7878C106.79 48.7277 106.689 48.0831 107.062 47.0231C107.921 44.5735 106.89 42.8402 109.253 42.9118C110.127 42.9405 111.144 42.8688 111.904 43.3559C113.852 44.6451 113.666 45.8054 113.68 47.9828C113.694 50.1746 113.207 51.5641 113.823 53.7701C114.324 55.5894 114.668 56.6924 116.43 57.5949C118.407 58.5976 119.682 58.2108 121.673 58.2968C123.306 58.3827 125.297 58.7265 126.916 58.9987C128.721 59.2995 130.282 59.9585 132.016 60.3453C133.377 60.6604 137.688 62.0786 138.791 62.9954C140.568 64.4422 141.126 63.8835 144.249 67.2069C145.281 68.3099 146.04 70.3154 147.143 70.8455C148.275 70.3154 147.945 69.9143 147.3 68.1667C146.914 67.1353 146.871 66.1755 146.369 65.0868C145.524 63.2676 144.35 61.5342 142.774 60.3023C138.877 57.2654 135.554 56.7927 131.07 55.2599C128.879 54.5007 126.73 54.4004 124.495 53.9993C120.556 53.3117 118.292 54.8015 118.235 52.1514C118.178 49.6016 118.178 47.152 118.078 44.6021C117.992 42.3245 116.788 40.5052 114.826 39.4022C114.067 38.9724 112.505 38.7576 111.631 38.7576C111.001 38.7576 109.039 39.3162 109.239 38.0556C109.253 37.9554 110.371 35.6061 110.557 35.1477C111.03 34.0017 113.35 31.3802 114.511 30.7642C115.556 30.2056 116.273 30.1053 116.917 28.988C118.264 26.6816 118.794 25.3924 119.095 22.7136C119.238 21.3528 119.381 20.2927 119.224 18.9175C119.037 17.4277 119.109 16.425 119.009 15.0498C118.923 14.047 118.264 12.987 117.762 12.1132C117.146 11.0245 116.616 10.6663 115.442 10.2652C112.935 9.42007 111.488 10.4658 108.824 10.2796C107.692 10.1936 106.431 10.5088 105.314 10.6807C103.81 10.9242 103.437 10.8812 102.306 11.9269ZM126.157 20.5506C126.114 17.8861 128.42 18.4878 130.025 18.5021C130.984 18.5164 131.787 18.4734 132.761 18.5737C133.792 18.674 134.566 18.4161 135.74 18.5594C137.502 18.7743 140.081 18.3588 142.043 18.5021C144.607 18.7026 144.278 20.8514 144.278 22.642C144.278 23.7737 144.436 24.4326 144.335 25.6216C144.264 26.5384 144.235 27.799 144.249 28.7301C144.278 30.8215 144.307 32.6265 144.464 34.7323C144.607 36.4942 144.135 38.6573 144.321 40.6198C144.378 41.1928 144.407 45.9917 144.335 46.3068C143.734 48.828 138.748 47.6963 137.23 47.7823C136.227 47.8396 135.21 47.8109 134.193 47.8109C133.291 47.8253 132.317 47.7107 131.471 47.7393C130.44 47.768 129.581 47.9685 128.506 47.8826C127.919 47.8539 126.615 47.3812 126.143 47.0231C125.441 46.493 125.698 44.8743 125.727 44.0864C125.813 41.995 126.286 40.4336 126.143 38.2275C126.085 37.2534 126.1 36.308 126.028 35.2909C125.956 34.2166 126.343 33.3284 126.214 32.297C125.928 30.1339 126.2 28.4723 126.143 26.3235C126.114 25.2205 126.143 24.6905 126.014 23.5301C125.942 22.8426 126.171 21.5247 126.157 20.5506ZM69.8885 23.4299C70.2036 24.2607 70.132 27.3692 70.0604 28.3863C69.9887 29.3174 70.0317 30.1769 70.0031 31.108C69.9887 32.0248 70.1893 33.0849 70.1606 33.7725C70.132 34.7466 70.1177 35.735 70.132 36.7091C70.1463 37.7262 69.9028 38.4281 70.089 39.4022C70.4328 41.2215 70.0604 45.7481 70.0031 47.9828C69.9887 48.6704 70.046 48.6418 70.1606 49.2578C70.2323 49.6589 70.0031 52.9106 69.9887 53.412C69.9601 54.1712 70.1177 55.3172 70.132 56.2054C70.1463 57.1938 70.0031 58.0103 70.0031 59.013C70.0174 59.9298 70.0317 60.8753 70.0031 61.7921C69.9887 62.6373 69.9458 63.8692 70.0604 64.6714C70.2323 65.8031 70.1033 66.419 70.132 67.4648C70.1606 68.1953 70.4615 68.9689 70.6763 69.6851C70.8053 70.1006 71.1777 74.6416 72.7105 73.0372C73.2978 72.4212 72.954 70.8455 73.5843 69.6278C73.7705 69.2697 73.7275 68.9546 73.8135 68.5535C73.9854 67.7226 74.0427 66.9204 74.2432 66.0466C74.5154 64.8147 74.4151 64.6427 74.5154 63.5254C74.6157 62.5943 74.8449 61.7778 74.8449 60.7893C74.8306 58.9701 74.716 57.1938 74.7016 55.3459C74.7016 53.5123 74.7016 51.693 74.7016 49.8451C74.6873 48.9569 74.5584 47.9542 74.6157 47.1233C74.7303 45.5333 74.8879 43.2556 74.7733 41.8088C74.6873 40.8204 74.587 39.9752 74.6443 38.9724C74.7446 37.1675 74.6873 35.248 74.6443 33.4287C74.6014 31.5378 74.7589 29.8618 74.6873 27.9566C74.6443 26.9825 74.6157 26.037 74.6443 25.0629C74.6587 23.8166 74.8735 23.5731 76.1198 23.6161C77.2228 23.6447 77.8102 23.215 78.6697 23.258C80.274 23.3296 80.0448 22.8426 81.0476 22.7852C81.8641 22.7423 82.3798 22.8712 83.1247 22.3269C84.4713 21.3241 83.755 19.9776 81.3484 19.8486C80.4603 19.8057 79.8443 19.5621 78.9705 19.3902C77.3661 19.0608 74.7733 19.7913 74.7589 17.9148C74.7446 16.0095 74.5297 14.1473 74.5154 12.3137C74.5011 10.695 73.6416 9.44872 72.8394 8.08785C72.5959 7.67243 72.2951 6.19696 71.5215 6.78428C71.2493 6.99916 70.5904 8.3457 70.4901 8.71815C69.8312 10.9815 70.4901 17.8288 70.0317 18.7599C69.4444 19.9776 66.2356 19.3616 65.1899 19.4475C64.5309 19.5048 61.4511 20.7941 61.1216 21.3528C60.2764 22.8139 64.0582 22.8855 64.6312 22.9142C65.4477 22.9571 66.2213 23.2007 67.0521 23.258C68.0262 23.3296 68.9287 23.3153 69.8885 23.4299ZM6.08513 39.5884C6.19973 38.7146 6.40028 38.3851 6.40028 37.3394C6.38596 36.6231 6.28568 35.4485 6.57218 34.8325C7.28843 33.2568 8.5347 32.9989 10.1104 33.486C12.2592 34.1449 11.6862 38.2848 11.8008 39.6744C11.9011 40.8633 11.8151 40.5768 11.6432 41.7228C11.4427 42.9978 11.7292 42.7972 11.7578 43.757C11.7721 44.2154 11.6719 44.4875 11.6289 44.903C11.5573 45.3757 11.7865 45.4473 11.7005 45.9917C11.3997 48.1691 9.79529 47.3096 8.3628 47.0947C7.08788 46.9085 6.97328 45.7195 6.51488 45.0176C6.31433 44.7167 5.99918 44.5305 5.88458 44.33C5.72701 44.0291 5.99918 40.1471 6.08513 39.5884ZM86.047 31.0794C86.4338 32.1251 86.6057 33.2425 86.3192 34.3312C86.2476 34.632 86.2476 37.8981 86.2762 38.3421C86.3765 39.789 86.7776 38.7289 86.2905 41.6942C86.09 42.8402 86.2476 43.6424 86.2905 44.774C86.3192 45.7625 86.1616 45.7195 86.4911 46.7079C86.62 47.0947 86.4911 48.0974 86.3908 48.5415C86.2189 49.3007 86.3622 49.7448 86.3048 50.4754C86.2189 51.5211 86.4481 51.65 86.4767 52.3663C86.5197 53.6985 86.7489 59.099 86.6916 59.9728C86.62 61.2907 86.8349 62.0786 87.1643 63.3392C87.3219 63.9408 87.2646 64.4852 87.3792 65.1298C87.5081 65.8747 87.809 66.3331 87.8806 66.7915C87.9236 67.0923 88.1098 68.4389 88.1671 68.6108C88.1814 68.6394 89.0409 69.8714 89.0552 69.9C90.058 70.8025 90.5021 67.9661 90.4591 67.3931C90.3875 66.3761 90.6167 66.4047 90.674 65.7601C90.7169 65.1298 90.3731 65.1728 90.6453 64.0841C90.8745 63.11 90.8459 61.3767 90.9461 60.2736C91.0321 59.3425 90.8745 57.2224 90.9748 56.6494C91.118 55.8616 90.8029 55.5894 90.9461 54.7585C91.0464 54.1569 91.0894 53.3404 91.0321 52.7244C90.8315 50.5184 90.8888 48.8423 91.0321 46.7079C91.0751 46.1206 90.7742 45.5476 90.7742 44.8743C90.7599 43.7856 91.0034 41.7515 90.8315 40.849C90.7169 40.276 91.0178 37.984 91.0464 37.1818C91.0751 36.4942 90.8459 36.0645 90.8888 35.3626C90.9318 34.6606 90.9318 33.9014 90.9032 33.2138C90.8888 32.6695 90.8315 32.7554 91.0894 32.3113C91.3759 31.8386 91.161 31.8243 91.247 31.3659C91.3616 30.8215 92.4503 30.9648 92.8943 30.8645C93.9544 30.6353 95.8166 30.8502 96.6904 30.3345C97.6359 29.7615 97.3494 28.2574 96.4326 27.6557C94.9285 26.6673 91.1897 27.0111 89.2844 26.8679C88.0095 26.7819 86.3908 26.8535 85.0729 26.8535C84.4999 26.8679 83.4972 26.653 83.1534 26.7389C82.5517 26.8965 81.9787 26.7962 81.3341 26.8392C79.744 26.9252 79.6294 26.4381 78.3115 27.7274C77.3518 28.6871 77.9677 29.8188 78.8272 30.5637C80.403 31.9389 84.1418 31.151 86.047 31.0794ZM134.566 25.9654C135.024 25.7792 136.242 25.994 136.6 26.3665C137.201 26.9825 137.316 27.3979 137.373 28.2287C137.459 29.8904 137.474 31.5378 137.474 33.2138C137.488 35.0474 137.774 36.308 137.502 38.1989C137.244 40.0038 137.345 40.8777 135.124 40.8777C133.033 40.8777 132.761 40.2187 132.216 38.4854C132.03 37.941 132.288 34.7609 132.274 33.8441C132.259 32.254 132.231 30.4061 132.503 28.8734C132.632 28.1714 132.016 27.9852 132.861 26.8965C133.248 26.3951 134.007 26.1803 134.566 25.9654ZM59.5458 24.0745C58.4285 24.4183 58.0131 25.4927 57.8698 26.5384C57.4544 29.4034 56.5806 33.4573 54.8186 35.7207C54.5751 36.0215 50.5928 38.9581 50.0054 39.3449C49.5184 39.6744 47.7564 40.5768 48.1145 41.3074C48.5013 42.1383 50.9509 41.7085 51.7101 41.5796C53.4721 41.2788 53.3575 41.2215 54.8902 40.4909C56.5376 39.7173 56.0649 42.2672 55.9789 43.0837C55.8787 44.0435 55.9073 45.8914 55.893 46.9371C55.893 47.5244 55.9646 48.0831 55.9646 48.6561C55.9646 49.2864 55.8214 49.8737 55.8214 50.504C55.7927 51.7789 55.8214 53.0109 55.9073 54.2858C55.9933 55.6324 55.3486 56.3916 55.4489 57.7381C55.5778 59.4285 55.7927 59.2852 55.6065 61.1331C55.5492 61.6488 56.0076 67.1066 56.0219 68.267C56.0219 69.0119 56.2654 71.4041 57.5404 70.1865C58.8009 68.9689 58.6147 65.6455 58.8869 64.0698C58.9728 63.5397 59.1447 63.024 59.1877 62.494C59.2307 61.9067 59.1161 61.4053 59.202 60.8037C59.4312 59.1706 59.6891 58.9701 59.4169 57.1795C59.0874 55.0737 59.8323 52.4379 59.5602 50.1029C59.3453 48.298 59.6031 44.5592 59.7894 42.654C60.1188 39.5311 58.715 38.9151 60.2334 35.5201C60.8351 34.1593 61.05 34.0733 61.3794 32.4832C61.8235 30.2915 62.9838 27.4265 62.3535 25.2635C62.0384 24.1604 60.477 23.7737 59.5458 24.0745ZM66.2213 32.4403C63.3849 32.5119 63.786 38.0843 63.8433 39.9609C63.872 40.7631 63.7287 41.4077 63.7717 42.2815C63.8004 42.9691 63.7717 43.7856 63.7717 44.5019C63.7717 45.92 63.3276 47.2523 63.5712 48.5988C63.872 50.3035 63.6428 51.3635 63.6428 53.0395C63.6571 53.7701 63.8147 54.4434 63.829 55.131C63.8433 55.8902 63.5712 56.5921 63.5712 57.3514C63.5568 58.9414 63.2417 60.2593 63.3563 61.8637C63.3993 62.6229 63.0841 66.0179 64.7172 65.0868C66.0494 64.3133 66.9662 58.8698 67.1524 57.3514C67.2956 56.0335 67.0378 54.8015 67.2383 53.4406C67.4389 51.9508 67.4389 50.6186 67.6824 49.1002C67.8113 48.3123 67.7254 47.5388 67.8257 46.7366C67.9259 45.9917 68.0405 45.1465 68.0692 44.4016C68.1408 42.7399 67.9403 40.9779 68.1981 39.3592C68.413 38.07 68.2697 36.351 68.3987 34.9328C68.5276 33.6579 67.3529 32.4116 66.2213 32.4403ZM79.0135 32.4403C77.4091 32.5405 76.7358 33.6292 76.6355 35.1477C76.5782 36.1648 76.9936 43.2126 77.1369 44.3443C77.3231 45.8484 77.2515 47.4671 77.452 48.871C77.6669 50.3465 77.9248 51.8362 78.1253 53.3117C78.3545 54.9304 78.3688 56.0621 78.8129 57.6952C79.214 59.1563 79.1281 60.1447 79.7297 61.7491C80.0878 62.7232 80.2024 64.9722 81.2195 65.5023C82.1363 65.9893 82.079 64.6857 82.036 64.1844C81.9501 63.2389 82.2509 62.6086 82.2366 61.8064C82.2222 60.9899 82.0074 60.4312 82.0503 59.4428C82.079 58.6979 81.9787 57.9817 81.9357 57.2368C81.8641 55.6753 81.9357 54.1569 81.8784 52.5955C81.8498 51.8506 81.6492 51.12 81.6349 50.4181C81.6206 49.6589 81.6349 48.9283 81.6063 48.1547C81.4773 45.3614 80.8757 42.0523 81.1622 39.3735C81.2625 38.514 81.0476 38.0556 80.9616 37.2678C80.8757 36.5086 81.0189 35.9212 81.0333 35.2193C81.0619 34.2452 80.1594 32.3686 79.0135 32.4403ZM59.9756 7.27133C57.4687 7.87298 57.8269 11.5975 57.4401 12.9583C57.082 14.2476 57.1249 14.7203 56.4803 16.0239C54.8329 19.3473 55.0765 18.5451 53.028 20.7798C51.6528 22.2839 48.487 23.7737 48.0859 24.2034C47.6275 24.7048 47.9856 25.2348 48.5729 25.3924C49.103 25.5213 49.7619 25.3494 50.3206 25.3494C51.4523 25.3494 52.8274 25.464 53.8875 25.0772C55.6924 24.4326 55.1338 24.5759 56.6092 23.6304C58.0417 22.6993 57.6979 22.8855 58.7007 21.539C59.4456 20.5506 59.6891 19.9203 60.1045 18.7599C60.5343 17.5853 61.1932 17.2272 61.4654 15.9379C61.6946 14.749 62.067 13.8465 62.0957 12.5572C62.1243 11.3826 62.7976 9.90712 62.4252 8.81842C62.1243 7.97325 60.8781 7.05646 59.9756 7.27133ZM87.2646 9.9501C86.4911 10.2796 85.0729 10.738 85.2735 11.9556C85.474 13.0586 86.3765 13.6316 87.2646 14.1473C87.8806 14.5198 90.2442 14.749 90.8172 14.3908C90.9891 14.2762 93.6965 13.8322 94.2838 13.6746C95.3439 13.3881 96.3753 13.8322 96.7907 12.2421C97.1345 10.8955 95.6877 10.5231 94.8282 10.3082C93.6535 10.0217 88.2101 9.549 87.2646 9.9501ZM158.531 6.85591C157.715 7.01348 156.039 7.81568 155.953 8.77545C155.895 9.3771 156.712 11.3683 156.984 12.0415C157.285 12.8151 158.259 14.0614 158.775 14.8206C159.405 15.7374 160.164 16.0668 160.823 17.4134C161.539 18.8602 163.029 18.101 162.657 16.0955C162.428 14.8349 162.198 13.603 161.969 12.3567C161.826 11.5975 161.11 9.8355 160.852 8.90437C160.58 7.9446 159.706 6.62671 158.531 6.85591ZM174.59 6.88456C171.381 7.45755 170.965 9.19087 172.613 11.884C173.444 13.2448 172.899 13.3738 174.317 14.663C175.277 15.5368 175.592 16.2817 176.323 17.1412C177.97 19.0751 178.758 16.4536 177.841 14.2189C177.641 13.7176 177.741 13.0013 177.669 12.6002C177.598 12.2564 177.197 11.6261 177.039 10.9958C176.81 10.0933 176.581 10.0217 176.38 9.39142C176.108 8.5749 176.008 6.62671 174.59 6.88456ZM166.138 7.01348C165.221 7.38593 163.831 7.70108 163.788 8.93302C163.746 10.2223 164.605 11.1247 164.949 12.1132C165.192 12.8437 164.992 12.8581 165.507 13.6173C166.224 14.6773 167.513 16.6112 168.301 17.4707C169.404 18.6597 170.45 17.2701 170.192 15.9379C170.091 15.4222 169.748 14.706 169.705 14.2762C169.49 12.3853 168.659 9.90712 168.559 8.81842C168.473 7.7154 167.355 6.54076 166.138 7.01348ZM80.9187 5.98208C80.1308 6.56941 78.8845 11.1247 78.9848 12.0702C79.1137 13.2735 78.8416 14.5771 79.3286 15.6944C80.1881 17.6139 83.5401 17.8575 83.4255 14.9495C83.3969 14.4625 83.4972 13.5027 83.4685 13.2162C83.4255 12.9297 83.2107 11.5688 83.2536 11.4399C83.6404 10.0504 83.2536 9.29115 82.7666 8.03055C82.5947 7.57215 81.6063 5.45206 80.9187 5.98208ZM195.504 7.05646C194.816 7.35728 193.441 7.257 193.498 8.7468C193.513 9.16222 193.355 8.90437 193.413 9.3198C193.455 9.70657 193.57 9.57765 193.541 10.1077C193.47 11.0818 193.828 10.8812 194.014 11.4829C194.172 11.9699 194.258 12.4713 194.315 12.9727C194.372 13.4311 194.745 13.517 194.96 14.2762C195.418 15.8806 196.005 16.339 196.292 16.8834C196.535 17.3418 197.839 18.0007 197.868 15.4222C197.882 15.279 198.097 13.9181 198.14 13.7176C198.297 12.9727 198.168 12.6718 198.082 11.9842C197.982 11.2107 198.111 11.0818 197.911 10.2079C197.825 9.8355 197.767 9.00465 197.724 8.58923C197.653 7.61513 196.392 6.64103 195.504 7.05646ZM158.202 1.65595C158.202 1.71325 158.259 1.82785 158.288 1.88515C158.331 1.94245 158.374 1.98542 158.431 2.0284C158.589 2.143 158.617 2.143 158.717 2.21462C158.975 2.38652 159.147 2.04272 158.861 1.7992C158.76 1.72757 158.703 1.71325 158.646 1.61298C158.546 1.48405 158.531 1.44108 158.345 1.44108C158.259 1.44108 158.202 1.59865 158.202 1.65595ZM131.787 21.6106C127.46 22.3842 128.506 24.2464 128.177 27.6414C127.89 30.5637 128.506 33.5003 128.435 34.3885C128.349 35.4485 128.205 35.5488 128.377 36.6948C128.807 39.5741 127.203 41.9807 130.368 44.3729C131.844 45.4903 132.388 45.5189 134.136 45.4187C135.525 45.3327 137.445 45.7911 138.577 45.1465C141.356 43.5851 142.315 41.8088 141.957 38.514C141.857 37.5829 142.015 36.9669 141.957 36.2507C141.9 35.5201 141.485 35.2193 141.456 34.2739C141.442 33.5146 141.599 32.8414 141.585 32.1394C141.571 31.0937 141.27 31.0937 141.542 29.8904C141.857 28.5439 141.685 26.8822 141.857 25.5356C141.972 24.6618 142.172 24.3753 141.742 23.5158C141.47 22.9858 141.126 22.3412 140.582 22.0547C140.023 21.7682 139.379 21.5103 138.748 21.6679C137.645 21.9544 137.602 21.5676 136.6 21.5247C135.812 21.496 132.46 21.4817 131.787 21.6106ZM3.39204 19.0035C0.885175 18.9605 1.42952 22.1979 1.57277 23.8739C1.77332 26.2949 1.759 28.2144 1.74467 30.6353C1.73035 31.81 1.94522 32.7554 2.00252 33.8728C2.05982 35.205 2.00252 35.9069 2.2747 37.2534C2.63282 39.1443 2.03117 41.3934 2.07415 43.5278C2.1028 44.5735 1.78765 45.2468 1.91657 46.3211C2.0455 47.3955 1.8736 48.2407 2.24605 49.3294C2.90499 51.3492 4.32316 52.2087 6.30001 52.6098C7.31708 52.8103 11.6002 52.6528 12.5887 52.309C14.3363 51.7073 15.7115 50.4181 16.1699 48.5988C16.4994 47.3096 16.1412 46.8655 16.1412 45.6479C16.1412 44.5019 16.2845 43.7856 16.1985 42.5394C16.1126 41.3504 16.4564 40.4479 16.4707 39.3735C16.485 38.2275 15.7115 37.7118 15.7258 36.4656C15.7401 34.3598 16.3418 32.3543 16.4564 30.1053C16.571 27.9566 17.6024 26.1516 15.5253 24.5902C13.663 23.172 11.5573 23.8453 11.7148 26.4811C11.7578 27.4838 12.0873 28.5869 10.6691 28.6585C6.38596 28.8877 6.22838 29.1599 6.38596 26.5527C6.45758 25.464 6.38596 24.1891 6.38596 23.0861C6.40028 21.1092 5.71268 19.0608 3.39204 19.0035ZM122.275 7.04213C121.243 7.5435 121.53 10.0933 121.559 10.9958C121.616 12.5286 121.587 14.0327 121.645 15.5512C121.773 18.5737 121.587 21.8398 121.559 24.891C121.559 26.3808 121.63 27.7417 121.63 29.2028C121.645 30.8359 121.888 32.2397 121.96 33.8298C122.175 38.5713 121.029 42.7829 121.687 47.639C121.845 48.8137 122.533 50.3608 123.421 51.1486C124.638 52.2517 125.369 52.5668 127.016 52.5382C128.664 52.5095 130.139 52.6528 131.83 52.5955C133.448 52.5525 135.053 52.6957 136.743 52.6384C138.462 52.5668 140.195 52.6098 141.929 52.6098C143.347 52.5955 144.908 52.8247 146.183 52.0511C146.985 51.5641 148.475 50.1746 148.719 49.2434C149.177 47.5531 149.034 41.8231 148.876 39.8892C148.69 37.6832 149.234 33.3714 148.977 30.4348C148.862 28.9736 149.134 27.269 149.091 25.6789C149.048 24.0602 148.977 22.8426 149.062 21.1809C149.206 18.631 149.664 14.0184 149.005 11.6977C148.762 10.7953 147.63 8.60355 146.541 9.79252C145.725 10.6663 145.997 12.4713 144.794 13.3594C143.791 14.1043 141.556 13.5886 140.21 13.7319C138.218 13.9611 137.359 13.6746 135.54 13.6746C133.907 13.6746 132.216 13.6316 130.598 13.6603C129.366 13.6889 127.145 14.133 126.343 13.1159C125.856 12.4856 125.541 9.99307 125.211 8.96167C124.896 7.95893 123.278 6.55508 122.275 7.04213ZM34.9356 32.4546C36.3824 32.3686 37.9438 32.6551 39.2904 31.9532C40.5939 31.2656 40.8948 30.4921 41.7113 29.4893C43.0722 27.799 42.3273 23.3439 42.5135 21.1522C42.5994 20.2927 42.5565 17.3991 42.4705 16.5109C42.3273 15.0498 41.9548 16.425 42.0264 12.2421C42.0408 11.7121 41.8975 10.6807 41.5824 10.2652C41.2672 9.82117 40.551 9.34845 39.9923 9.50602C37.9581 10.0504 38.7317 10.9672 38.1444 12.5286C37.8149 13.3881 38.3879 13.8178 37.0843 13.8751C36.2248 13.9181 35.6232 13.8178 34.8067 13.7749C34.0904 13.7319 33.6034 13.7892 32.9158 13.8035C32.1136 13.8035 31.5119 13.56 30.6238 13.6316C29.9648 13.6889 29.2343 13.9038 28.5896 13.8178C27.8734 13.7319 27.329 13.6459 26.5985 13.603C23.6618 13.4167 24.6216 14.5771 23.2321 10.2366C22.9026 9.21952 23.0459 9.01897 22.8453 8.18813C22.4729 6.54076 20.539 6.79861 20.1236 7.85865C19.8944 8.47463 19.5076 10.9958 19.4646 11.6977C19.436 12.0415 19.6365 13.1446 19.6365 13.8035C19.6365 14.4481 19.7225 15.6801 19.6079 16.2531C19.4217 17.2701 19.6938 17.2701 19.6509 18.2156C19.5506 20.7511 19.7941 19.734 19.393 22.4558C19.2927 23.129 19.479 23.8739 19.4503 24.5902C19.4073 25.4497 19.7225 26.0513 19.5936 26.7103C19.479 27.3406 19.6938 27.9566 19.8657 28.5869C20.2955 30.1483 20.7252 30.5064 21.8999 31.4375C22.3583 31.7956 22.8167 32.1824 23.3753 32.3543C23.977 32.5405 25.1087 32.1824 25.5098 32.6981C25.8536 33.1279 25.7676 34.3025 25.7676 34.8612C25.7676 35.6204 25.4525 36.0072 24.8795 36.4369C22.4156 38.2705 18.82 41.1498 18.29 44.4732C17.8746 47.066 17.8746 48.4412 17.9175 50.9338C17.9319 51.7073 17.631 52.2803 17.5881 53.0968C17.5451 53.899 17.6024 54.7299 17.6024 55.5178C17.5881 56.0908 17.4448 56.0478 17.3445 56.4775C17.2729 56.7927 17.3302 57.337 17.3302 57.6808C17.3159 59.2709 17.2013 60.7034 17.1297 62.2791C17.101 62.8808 16.9578 63.597 17.0007 64.213C17.0867 65.3017 16.7715 65.5595 16.7859 66.2471C16.8145 67.3502 17.144 66.8918 16.8145 68.3386C16.3991 70.1722 19.0492 72.8223 19.2784 68.8256C19.35 67.565 20.1666 67.5364 20.2525 64.9292C20.2812 63.9552 19.966 64.3992 20.2955 63.2103C20.5247 62.4224 20.625 61.9067 20.6536 61.0758C20.6966 60.3596 20.7109 59.672 20.7539 58.9414C20.7969 58.0962 21.112 57.6235 21.1263 56.8357C21.1263 55.5464 21.7137 54.2285 21.8139 52.9249C21.8569 52.5095 21.7996 52.223 21.7853 51.8362C21.7566 51.3778 21.9142 51.2489 21.9572 50.8478C22.0431 50.1316 22.0145 49.4726 22.215 48.7421C22.3869 48.0688 22.6161 47.4385 22.6018 46.7366C22.5731 45.4903 22.788 45.7768 23.1318 44.7884C23.7048 43.0694 26.4266 40.6914 28.031 39.9322C29.578 39.216 29.7643 38.9151 30.3086 37.3394C30.6667 36.3223 30.2227 33.529 30.5235 32.8127C30.6954 32.383 31.7268 31.7956 31.9417 32.7411C31.999 33.0419 32.0706 34.6893 32.0706 35.0761C32.0563 36.6948 31.6981 37.2821 32.7725 38.8005C34.1907 40.7774 36.6403 38.9008 38.5884 42.7256C38.9322 43.4132 39.2617 43.5421 39.5912 44.1151C39.7774 44.4302 40.0353 45.8198 39.9923 46.1636C39.8347 47.8539 39.892 48.7994 40.1355 50.4897C40.2788 51.4781 40.3647 54.1569 40.3504 55.2026C40.3361 56.1194 40.5796 56.1624 40.4364 57.1938C40.3647 57.7954 40.3934 58.7265 40.4937 59.3282C40.6656 60.4312 40.6226 62.3794 41.0523 63.3249C41.6253 64.5855 41.4248 65.7601 41.4678 66.2185C41.4964 66.5909 41.654 66.8774 41.6826 67.2642C41.7686 68.0234 41.7543 68.5105 42.1124 69.2411C42.141 69.327 43.0149 70.7882 43.0292 70.8025C44.0606 71.8769 44.8198 69.1694 44.9917 68.5105C45.1636 67.8086 44.963 66.8918 45.0633 66.1755C45.1636 65.4736 45.3498 64.7717 45.3498 64.0554C45.3498 62.4654 45.049 61.4626 45.049 59.8582C45.049 59.1276 45.1206 58.2682 45.092 57.5662C45.0203 56.32 44.4903 56.0335 44.7338 53.1828C44.8055 52.3376 44.7195 51.8362 44.7195 51.0054C44.7338 49.5013 44.2182 43.9432 43.5592 42.8259C42.9719 41.8374 42.3702 40.7774 41.4534 40.0611C40.7802 39.5454 39.5912 37.941 38.9895 37.6545C38.1157 37.2534 36.7405 36.4226 35.967 35.8066C34.5202 34.632 35.2078 33.9157 34.9356 32.4546ZM161.009 32.9989C161.611 32.8557 162.915 33.0133 163.617 32.956C164.204 32.8987 165.035 32.6265 165.465 33.2281C165.952 33.9301 165.78 34.7036 165.78 35.5488C165.78 36.2077 166.023 37.3537 165.479 37.7978C164.433 38.6286 162.757 37.9697 161.912 37.1245C161.067 36.2794 161.353 36.351 161.167 35.3912C161.081 34.9471 160.909 33.3427 161.009 32.9989ZM164.347 23.9885C165.25 23.8166 165.593 24.2321 165.593 25.1345C165.579 26.6387 165.78 25.3781 165.722 27.2403C165.679 28.2144 165.006 28.0568 164.276 28.1858C163.617 28.3147 160.938 28.5439 160.881 27.6271C160.866 27.1687 160.995 25.9081 161.095 25.4497C161.21 24.8194 161.797 24.5902 162.284 24.2464C162.943 23.745 163.588 24.1461 164.347 23.9885ZM170.435 28.3004C170.378 27.756 170.407 27.0827 170.407 26.5384C170.421 25.8938 170.249 25.507 170.278 24.9913C170.364 23.5874 171.467 23.9599 172.441 24.0315C173.802 24.1318 173.701 24.1175 174.432 25.2635C174.991 26.1373 174.79 26.9968 174.632 27.9852C174.36 28.0282 173.773 28.0139 173.486 27.9566L171.467 28.2287C171.223 28.329 170.722 28.372 170.435 28.3004ZM170.478 47.2236C170.278 46.0919 170.006 43.7856 170.335 42.7256C171.051 40.4622 174.389 43.3272 177.784 40.3476C179.03 39.2446 179.116 38.4854 179.231 36.8953C179.374 35.0044 179.417 34.3885 179.259 32.4976C179.145 31.1224 179.431 29.5896 179.331 27.9852C179.245 26.4668 179.159 24.9053 179.245 23.3869C179.331 21.9114 179.288 20.8944 177.97 19.9919C176.566 19.0321 175.821 19.2756 174.274 19.3329C172.799 19.3759 171.28 19.1181 169.748 19.1754C168.272 19.2183 167.284 19.204 165.823 19.1754C164.419 19.1324 162.9 19.3329 161.396 19.3186C158.445 19.2756 156.325 20.1208 156.483 23.4155C156.554 24.7764 156.425 26.08 156.526 27.4552C156.597 28.6585 156.726 31.0507 156.526 32.1538C156.168 34.2452 156.254 38.0556 157.715 39.7173C161.196 43.671 163.029 40.7201 165.336 41.9807C166.209 42.4677 166.066 45.2897 165.937 46.1779C165.665 48.0258 163.846 47.4958 162.442 47.5531C160.766 47.6104 159.247 47.682 157.543 47.682C156.411 47.682 153.775 47.2952 153.174 48.3839C151.612 51.2489 158.674 51.2632 159.935 51.1773C161.267 51.1057 163.015 51.1486 164.333 51.2919C166.424 51.5211 165.722 53.2114 165.708 54.8158C165.679 56.3343 165.751 57.953 165.751 59.5001C165.737 61.0472 166.009 62.1359 166.109 63.597C166.152 64.3849 166.109 65.1441 166.166 65.9177C166.224 66.6912 166.453 67.3358 166.568 68.0807C166.768 69.284 166.768 71.3468 168.616 70.7309C168.817 70.4014 169.504 64.829 169.561 64.0554C169.59 63.597 169.59 62.9381 169.647 62.5227C169.762 61.6059 170.006 61.8924 170.106 60.9612C170.22 59.8296 170.049 58.7122 170.063 57.5662C170.091 56.4059 168.96 51.5641 170.507 51.2059C170.865 51.12 175.392 51.1916 176.409 51.1916C177.154 51.1916 177.741 51.0627 178.343 51.0627C179.245 52.4522 178.701 53.4979 178.715 54.9734C178.715 55.661 178.772 56.4059 178.815 57.1078C178.858 57.7954 179.131 58.4544 179.131 59.099C179.102 61.0472 179.102 60.6747 179.546 62.5083C179.832 63.726 179.99 65.1728 180.248 66.3761C180.549 67.7369 181.924 68.0521 182.368 66.2471C182.697 64.872 183.199 59.3998 183.156 57.996C183.142 57.3084 182.927 56.5778 183.056 55.9045C183.227 54.9018 183.356 54.9877 183.184 53.8847C183.056 53.0395 183.199 52.796 183.285 52.0081C183.371 51.3205 183.184 50.7046 183.184 50.017C183.199 49.3294 183.371 48.6991 183.356 47.9828C183.328 47.1663 183.356 46.5503 183.414 45.7338C183.5 44.287 182.826 43.2986 184.13 42.1669C184.861 41.5223 186.909 40.7917 187.296 42.038C187.482 42.6683 187.339 43.2843 187.611 43.9862C187.897 44.7167 188.012 44.6594 188.098 45.5046C188.198 46.5933 188.628 48.0401 188.886 49.1288C189.172 50.3894 189.602 51.5211 189.788 52.796C189.975 54.0136 190.605 55.088 191.006 56.2483C191.206 56.807 191.35 57.423 191.507 57.996C191.779 58.9701 193.341 61.3337 193.814 62.58C194.43 64.2273 198.011 69.9287 199.758 70.3298C200.403 70.473 200.89 69.8714 200.804 69.3843C200.718 68.9259 200.174 68.2813 199.973 67.8659C198.985 65.9463 197.71 63.4968 197.194 61.434C196.979 60.5601 197.051 60.5458 196.578 59.8009L195.146 56.6494L194.401 52.9822C194.229 52.223 193.986 51.8935 193.785 51.2632C193.613 50.6903 193.656 50.0313 193.427 49.3007C193.255 48.7707 192.954 48.0258 192.868 47.5101C192.782 47.0231 192.467 46.4787 192.367 45.7768C192.238 44.9889 192.209 44.6451 191.966 43.8573C191.579 42.6683 190.648 41.2931 192.395 40.9636C193.67 40.7344 195.232 40.9063 196.607 40.5912C197.595 40.3763 199.286 40.4336 199.93 39.9465C201.291 38.8865 200.117 37.8694 198.799 37.6545C198.111 37.5399 197.466 37.5686 196.793 37.4397C196.177 37.3107 195.604 37.1245 194.96 37.1102C190.633 37.0099 190.777 37.5686 189.846 33.4144C189.573 32.1681 189.559 30.8359 189.33 29.5896C188.857 27.1973 190.032 28.2144 191.722 28.0998C193.054 28.0139 194.315 27.5698 195.59 27.4552C196.736 27.3549 198.183 27.6701 198.856 26.4381C200.16 24.0888 193.914 24.0458 192.868 24.1031C192.295 24.1318 189.502 24.0172 189.172 23.702C188.614 23.1434 188.771 20.6795 188.8 19.8343C188.857 18.3159 188.614 17.3274 188.556 15.9666C188.542 15.3076 188.685 14.6917 188.642 13.9897C188.599 13.2162 188.384 12.6575 188.413 11.8553C188.442 10.7093 188.384 8.94735 187.94 7.8873C187.396 6.62671 185.992 6.48346 184.946 7.18538C183.686 8.03055 183.557 8.94735 183.772 10.4085C183.958 11.6977 183.843 12.8151 184.13 14.0757C184.703 16.6685 184.187 19.5192 184.388 22.0833C184.531 24.0888 184.416 24.3037 182.253 24.1748C180.864 24.0888 180.062 24.5615 180.248 26.123C180.42 27.4409 181.594 28.0425 182.798 28.0998C185.247 28.2144 184.932 27.5555 185.319 30.2199C185.391 30.6926 185.219 30.7929 185.233 31.108C185.262 31.3945 185.405 31.4375 185.448 31.9246C185.491 32.4259 185.792 33.1279 185.835 33.7725C185.906 34.7896 186.938 36.4083 185.362 36.7234C183.643 37.0816 183.457 37.0243 181.895 37.8264C181.709 37.9124 180.835 38.6716 180.62 38.8578C180.32 39.13 179.961 39.8606 179.689 40.2474C178.271 42.3531 179.374 46.8655 178.314 47.3955C177.755 47.682 177.01 47.725 176.423 47.5531C175.936 47.4242 171.581 47.5531 170.478 47.2236Z" fill="url(#paint0_linear_16_3)"/>
</g>
<defs>
<linearGradient id="paint0_linear_16_3" x1="101.118" y1="50.2801" x2="101.118" y2="24.2954" gradientUnits="userSpaceOnUse">
<stop stop-color="#E62129"/>
<stop offset="1" stop-color="#1D1819"/>
</linearGradient>
</defs>
</svg>
